mtllib lvl_grass_down.mtl
o Default
v 0 0.5 0
v 1 0 -1
v 0 0.5 -1
v 1 0 0
v 1 0 -2
v 0 0.5 -2
v 1 0 -3
v 0 0.5 -3
v 1 0 -4
v 0 0.5 -4
v 2 0 -4
v 2 0 -3
v 2 0 -5
v 1 0 -5
v 0 0.5 -5
v 2 0 -2
v 2 0 -1
v 2 0 0
v 4 0 0
v 5 0 -1
v 4 0 -1
v 5 0 0
v 3 0 -2
v 4 0 -3
v 3 0 -3
v 4 0 -2
v 4 0 -4
v 5 0 -5
v 4 0 -5
v 5 0 -4
v 3 0 -4
v 3 0 -5
v 5 0 -2
v 3 0 -1
v 3 0 0
v 5 0 -3
vt 0 0.5
vt 0.125 0.625
vt 0 0.625
vt 0.125 0.5
vn 0.4472136 0.89442719 0
vn 0 1 0
g Scene
usemtl texture_texture_texture_bigfoot_trees
f 1/1/1 2/2/1 3/3/1
f 1/1/1 4/4/1 2/2/1
f 3/1/1 5/2/1 6/3/1
f 3/1/1 2/4/1 5/2/1
f 6/1/1 7/2/1 8/3/1
f 6/1/1 5/4/1 7/2/1
f 8/1/1 9/2/1 10/3/1
f 8/1/1 7/4/1 9/2/1
f 7/1/2 11/2/2 9/3/2
f 7/1/2 12/4/2 11/2/2
f 9/1/2 13/2/2 14/3/2
f 9/1/2 11/4/2 13/2/2
f 10/1/1 14/2/1 15/3/1
f 10/1/1 9/4/1 14/2/1
f 5/1/2 12/2/2 7/3/2
f 5/1/2 16/4/2 12/2/2
f 2/1/2 16/2/2 5/3/2
f 2/1/2 17/4/2 16/2/2
f 4/1/2 17/2/2 2/3/2
f 4/1/2 18/4/2 17/2/2
f 19/1/2 20/2/2 21/3/2
f 19/1/2 22/4/2 20/2/2
f 23/1/2 24/2/2 25/3/2
f 23/1/2 26/4/2 24/2/2
f 27/1/2 28/2/2 29/3/2
f 27/1/2 30/4/2 28/2/2
f 12/1/2 31/2/2 11/3/2
f 12/1/2 25/4/2 31/2/2
f 11/1/2 32/2/2 13/3/2
f 11/1/2 31/4/2 32/2/2
f 31/1/2 29/2/2 32/3/2
f 31/1/2 27/4/2 29/2/2
f 21/1/2 33/2/2 26/3/2
f 21/1/2 20/4/2 33/2/2
f 16/1/2 25/2/2 12/3/2
f 16/1/2 23/4/2 25/2/2
f 17/1/2 23/2/2 16/3/2
f 17/1/2 34/4/2 23/2/2
f 18/1/2 34/2/2 17/3/2
f 18/1/2 35/4/2 34/2/2
f 35/1/2 21/2/2 34/3/2
f 35/1/2 19/4/2 21/2/2
f 34/1/2 26/2/2 23/3/2
f 34/1/2 21/4/2 26/2/2
f 26/1/2 36/2/2 24/3/2
f 26/1/2 33/4/2 36/2/2
f 24/1/2 30/2/2 27/3/2
f 24/1/2 36/4/2 30/2/2
f 25/1/2 27/2/2 31/3/2
f 25/1/2 24/4/2 27/2/2
