mtllib lvl_grass_up.mtl
o Default
v 0 0.5 0
v 1 0 -1
v 0 0 -1
v 1 0.5 0
v 2 0.5 0
v 3 0 -1
v 2 0 -1
v 3 0.5 0
v 4 0.5 0
v 5 0 -1
v 4 0 -1
v 5 0.5 0
v 2 0 -3
v 3 0 -4
v 2 0 -4
v 3 0 -3
v 1 0 -2
v 0 0 -2
v 4 0 -4
v 4 0 -3
v 3 0 -2
v 2 0 -2
v 5 0 -2
v 4 0 -2
v 5 0 -4
v 5 0 -3
v 1 0 -3
v 0 0 -3
v 1 0 -4
v 0 0 -4
v 4 0 -5
v 3 0 -5
v 1 0 -5
v 0 0 -5
v 2 0 -5
v 5 0 -5
vt 0.125 0.5
vt 0 0.625
vt 0.125 0.625
vt 0 0.5
vt 0.25 0.625
vt 0.25 0.5
vt 0.25 0.75
vt 0.125 0.75
vt 0.125 1
vt 0 0.875
vt 0 1
vt 0.125 0.875
vn 0 0.89442719 -0.4472136
vn 0 1 0
g Scene
usemtl texture_texture_bigfoot_trees
f 1/1/1 2/2/1 3/3/1
f 1/1/1 4/4/1 2/2/1
f 5/1/1 6/2/1 7/3/1
f 5/1/1 8/4/1 6/2/1
f 9/5/1 10/1/1 11/3/1
f 9/5/1 12/6/1 10/1/1
f 13/3/2 14/7/2 15/8/2
f 13/3/2 16/5/2 14/7/2
f 4/1/1 7/2/1 2/3/1
f 4/1/1 5/4/1 7/2/1
f 3/1/2 17/2/2 18/3/2
f 3/1/2 2/4/2 17/2/2
f 16/9/2 19/10/2 14/11/2
f 16/9/2 20/12/2 19/10/2
f 7/1/2 21/2/2 22/3/2
f 7/1/2 6/4/2 21/2/2
f 2/2/2 22/1/2 17/4/2
f 2/2/2 7/3/2 22/1/2
f 11/1/2 23/2/2 24/3/2
f 11/1/2 10/4/2 23/2/2
f 6/2/2 24/1/2 21/4/2
f 6/2/2 11/3/2 24/1/2
f 20/8/2 25/5/2 19/7/2
f 20/8/2 26/3/2 25/5/2
f 24/3/2 26/4/2 20/2/2
f 24/3/2 23/1/2 26/4/2
f 17/1/2 13/2/2 27/3/2
f 17/1/2 22/4/2 13/2/2
f 18/1/2 27/2/2 28/3/2
f 18/1/2 17/4/2 27/2/2
f 28/1/2 29/2/2 30/3/2
f 28/1/2 27/4/2 29/2/2
f 14/9/2 31/10/2 32/11/2
f 14/9/2 19/12/2 31/10/2
f 30/5/2 33/8/2 34/3/2
f 30/5/2 29/7/2 33/8/2
f 8/5/1 11/1/1 6/3/1
f 8/5/1 9/6/1 11/1/1
f 22/5/2 16/1/2 13/3/2
f 22/5/2 21/6/2 16/1/2
f 27/3/2 15/7/2 29/8/2
f 27/3/2 13/5/2 15/7/2
f 15/9/2 32/10/2 35/11/2
f 15/9/2 14/12/2 32/10/2
f 29/9/2 35/10/2 33/11/2
f 29/9/2 15/12/2 35/10/2
f 19/8/2 36/5/2 31/7/2
f 19/8/2 25/3/2 36/5/2
f 21/5/2 20/8/2 16/7/2
f 21/5/2 24/3/2 20/8/2
