mtllib lvl_dirt_flat_basic.mtl
o Default
v 1 0 0
v 2 0 -1
v 1 0 -1
v 2 0 0
v 3 0 0
v 4 0 -1
v 3 0 -1
v 4 0 0
v 3 0 -2
v 4 0 -3
v 3 0 -3
v 4 0 -2
v 4 0 -4
v 3 0 -4
v 5 0 -1
v 5 0 0
v 5 0 -2
v 0 0 -4
v 1 0 -5
v 0 0 -5
v 1 0 -4
v 2 0 -2
v 1 0 -2
v 0 0 -1
v 0 0 -2
v 1 0 -3
v 0 0 -3
v 5 0 -4
v 5 0 -3
v 2 0 -5
v 2 0 -4
v 2 0 -3.5
v 3 0 -4.5
v 2 0 -4.5
v 3 0 -3.5
v 2 0 -3
v 0 0 0
v 3 0 -5
v 4 0 -5
v 5 0 -5
v 2 0 -0.5
v 3 0 -1.5
v 2 0 -1.5
v 3 0 -0.5
v 4 0 -2.5
v 3 0 -2.5
v 4 0 -1.5
v 4 0 -3.5
v 4 0 -4.5
vt 0 1
vt 0.125 0.875
vt 0.125 1
vt 0 0.875
vt 0.25 0.875
vt 0.25 1
vn 0 1 0
g Scene
usemtl texture_texture_bigfoot_trees
f 1/1/1 2/2/1 3/3/1
f 1/1/1 4/4/1 2/2/1
f 5/1/1 6/2/1 7/3/1
f 5/1/1 8/4/1 6/2/1
f 9/1/1 10/2/1 11/3/1
f 9/1/1 12/4/1 10/2/1
f 11/1/1 13/2/1 14/3/1
f 11/1/1 10/4/1 13/2/1
f 8/1/1 15/2/1 6/3/1
f 8/1/1 16/4/1 15/2/1
f 6/1/1 17/2/1 12/3/1
f 6/1/1 15/4/1 17/2/1
f 18/3/1 19/5/1 20/6/1
f 18/3/1 21/2/1 19/5/1
f 2/1/1 9/2/1 22/3/1
f 2/1/1 7/4/1 9/2/1
f 3/1/1 22/2/1 23/3/1
f 3/1/1 2/4/1 22/2/1
f 24/1/1 23/2/1 25/3/1
f 24/1/1 3/4/1 23/2/1
f 25/1/1 26/2/1 27/3/1
f 25/1/1 23/4/1 26/2/1
f 10/3/1 28/5/1 13/6/1
f 10/3/1 29/2/1 28/5/1
f 27/1/1 21/2/1 18/3/1
f 27/1/1 26/4/1 21/2/1
f 21/3/1 30/5/1 19/6/1
f 21/3/1 31/2/1 30/5/1
f 32/3/1 33/5/1 34/6/1
f 32/3/1 35/2/1 33/5/1
f 36/1/1 14/2/1 31/3/1
f 36/1/1 11/4/1 14/2/1
f 12/3/1 29/5/1 10/6/1
f 12/3/1 17/2/1 29/5/1
f 22/1/1 11/2/1 36/3/1
f 22/1/1 9/4/1 11/2/1
f 7/1/1 12/2/1 9/3/1
f 7/1/1 6/4/1 12/2/1
f 23/1/1 36/2/1 26/3/1
f 23/1/1 22/4/1 36/2/1
f 37/1/1 3/2/1 24/3/1
f 37/1/1 1/4/1 3/2/1
f 31/3/1 38/5/1 30/6/1
f 31/3/1 14/2/1 38/5/1
f 14/3/1 39/5/1 38/6/1
f 14/3/1 13/2/1 39/5/1
f 13/2/1 40/6/1 39/3/1
f 13/2/1 28/5/1 40/6/1
f 4/1/1 7/2/1 2/3/1
f 4/1/1 5/4/1 7/2/1
f 41/3/1 42/5/1 43/6/1
f 41/3/1 44/2/1 42/5/1
f 42/3/1 45/5/1 46/6/1
f 42/3/1 47/2/1 45/5/1
f 46/3/1 48/5/1 35/6/1
f 46/3/1 45/2/1 48/5/1
f 35/3/1 49/5/1 33/6/1
f 35/3/1 48/2/1 49/5/1
f 26/1/1 31/2/1 21/3/1
f 26/1/1 36/4/1 31/2/1
