mtllib lvl_grass_flat_basic.mtl
o Default
v 0 0 0
v 1 0 -1
v 0 0 -1
v 1 0 0
v 2 0 0
v 3 0 -1
v 2 0 -1
v 3 0 0
v 4 0 -1
v 4 0 0
v 5 0 -1
v 5 0 0
v 1 0 -2
v 0 0 -2
v 2 0 -3
v 3 0 -4
v 2 0 -4
v 3 0 -3
v 3 0 -2
v 2 0 -2
v 5 0 -2
v 4 0 -2
v 4 0 -3
v 5 0 -3
v 1 0 -3
v 0 0 -3
v 1 0 -4
v 0 0 -4
v 4 0 -4
v 5 0 -5
v 4 0 -5
v 5 0 -4
v 3 0 -5
v 2 0 -5
v 1 0 -5
v 0 0 -5
vt 0.125 0.5
vt 0 0.625
vt 0.125 0.625
vt 0 0.5
vt 0.25 0.625
vt 0.25 0.5
vn 0 1 0
g Scene
usemtl texture_texture_bigfoot_trees
f 1/1/1 2/2/1 3/3/1
f 1/1/1 4/4/1 2/2/1
f 5/1/1 6/2/1 7/3/1
f 5/1/1 8/4/1 6/2/1
f 8/1/1 9/2/1 6/3/1
f 8/1/1 10/4/1 9/2/1
f 10/1/1 11/2/1 9/3/1
f 10/1/1 12/4/1 11/2/1
f 4/1/1 7/2/1 2/3/1
f 4/1/1 5/4/1 7/2/1
f 3/1/1 13/2/1 14/3/1
f 3/1/1 2/4/1 13/2/1
f 15/4/1 16/3/1 17/1/1
f 15/4/1 18/2/1 16/3/1
f 7/1/1 19/2/1 20/3/1
f 7/1/1 6/4/1 19/2/1
f 2/2/1 20/1/1 13/4/1
f 2/2/1 7/3/1 20/1/1
f 9/1/1 21/2/1 22/3/1
f 9/1/1 11/4/1 21/2/1
f 6/2/1 22/1/1 19/4/1
f 6/2/1 9/3/1 22/1/1
f 19/1/1 23/2/1 18/3/1
f 19/1/1 22/4/1 23/2/1
f 22/3/1 24/4/1 23/2/1
f 22/3/1 21/1/1 24/4/1
f 13/1/1 15/2/1 25/3/1
f 13/1/1 20/4/1 15/2/1
f 14/1/1 25/2/1 26/3/1
f 14/1/1 13/4/1 25/2/1
f 26/1/1 27/2/1 28/3/1
f 26/1/1 25/4/1 27/2/1
f 25/1/1 17/2/1 27/3/1
f 25/1/1 15/4/1 17/2/1
f 29/1/1 30/2/1 31/3/1
f 29/1/1 32/4/1 30/2/1
f 18/1/1 29/2/1 16/3/1
f 18/1/1 23/4/1 29/2/1
f 23/1/1 32/2/1 29/3/1
f 23/1/1 24/4/1 32/2/1
f 16/1/1 31/2/1 33/3/1
f 16/1/1 29/4/1 31/2/1
f 17/1/1 33/2/1 34/3/1
f 17/1/1 16/4/1 33/2/1
f 27/1/1 34/2/1 35/3/1
f 27/1/1 17/4/1 34/2/1
f 28/1/1 35/2/1 36/3/1
f 28/1/1 27/4/1 35/2/1
f 20/5/1 18/1/1 15/3/1
f 20/5/1 19/6/1 18/1/1
