mtllib charliekirk.mtl
o Default
v 6 1 0
v 7 2 0
v 6 2 0
v 7 1 0
v 5 0 0
v 5 1 0
v 6 0 0
v 5 2 0
v 4 0 4
v 3 0 3
v 3 0 4
v 4 0 3
v 2 0 0
v 3 1 0
v 2 1 0
v 3 0 0
v 4 0 0
v 4 1 0
v 0 0 0
v 1 1 0
v 0 1 0
v 1 0 0
v 0 0 1
v 1 0 1
v 4 2 0
v 7 0 0
v 3 2 0
v 2 2 0
v 1 2 0
v 0 2 0
v 4 0 1
v 5 0 1
v 2 0 1
v 3 0 1
v 6 0 1
v 7 0 1
v 2 0 5
v 2 0 4
v 3 0 5
v 6 0 2
v 7 0 2
v 5 0 2
v 0 0 2
v 1 0 2
v 3 0 2
v 4 0 2
v 2 0 2
v 7 0 3
v 6 0 3
v 5 0 3
v 2 0 3
v 1 0 3
v 0 0 3
v 1 0 5
v 0 0 4
v 0 0 5
v 1 0 4
v 7 0 4
v 6 0 4
v 4 0 5
v 5 0 4
v 5 0 5
v 7 0 5
v 6 0 5
v 1 3 0
v 0 3 0
v 2 3 0
v 4 3 0
v 3 3 0
v 5 3 0
v 6 3 0
v 7 3 0
v 0 3 -1
v 1 3 -1
v 2 3 -1
v 3 3 -1
v 4 3 -1
v 5 3 -1
v 6 3 -1
v 7 3 -1
v 0 3 -2
v 1 3 -2
v 2 3 -2
v 1 3 -3
v 0 3 -4
v 0 3 -3
v 1 3 -4
v 4 3 -2
v 3 3 -3
v 3 3 -2
v 4 3 -3
v 6 3 -3
v 5 3 -4
v 5 3 -3
v 6 3 -4
v 7 3 -2
v 6 3 -2
v 7 3 -3
v 5 3 -2
v 4 3 -4
v 2 3 -3
v 3 3 -4
v 2 3 -4
v 7 3 -4
v 0 5 -4
v 1 6 -4
v 0 6 -4
v 1 5 -4
v 6 4 -4
v 5 4 -4
v 4 4 -4
v 3 4 -4
v 2 4 -4
v 1 4 -4
v 7 4 -4
v 2 5 -4
v 3 5 -4
v 0 4 -4
v 4 5 -4
v 5 5 -4
v 6 5 -4
v 7 5 -4
v 7 6 -4
v 6 6 -4
v 5 6 -4
v 4 6 -4
v 3 6 -4
v 2 6 -4
v 0 3 -5
v 1 3 -5
v 2 3 -5
v 3 3 -7
v 2 3 -6
v 3 3 -6
v 2 3 -7
v 1 3 -6
v 1 3 -7
v 0 3 -6
v 0 3 -7
v 5 3 -6
v 6 3 -5
v 6 3 -6
v 5 3 -5
v 4 3 -5
v 3 3 -5
v 7 3 -5
v 7 3 -6
v 7 3 -7
v 6 3 -7
v 5 3 -7
v 4 3 -6
v 4 3 -7
v 6 0 6
v 7 0 6
v 5 0 6
v 4 0 6
v 3 0 6
v 2 0 6
v 1 0 6
v 0 0 6
v 0 0 7
v 1 0 7
v 2 0 7
v 3 0 7
v 4 0 7
v 5 0 7
v 6 0 7
v 7 0 7
v 0 -1 7
v 1 -1 7
v 2 -1 7
v 3 -1 7
v 4 -1 7
v 5 -1 7
v 6 -1 7
v 7 -1 7
v 5 -2 7
v 6 -2 7
v 4 -2 7
v 3 -2 7
v 1 -2 7
v 2 -2 7
v 7 -2 7
v 0 -2 7
v -1 2 -4
v -1 3 -4
v 0 2 -4
v -2 2 -4
v -2 3 -4
v -3 2 -4
v -3 3 -4
v -4 2 -4
v -4 3 -4
v -5 2 -4
v -5 3 -4
v -6 2 -4
v -6 3 -4
v 0 2 -3
v 0 2 -2
v 0 2 -1
v -6 1 -4
v -5 1 -4
v -4 1 -4
v -3 1 -4
v -2 1 -4
v -1 1 -4
v 0 1 -4
v 0 1 -3
v 0 1 -2
v 0 1 -1
v 0 0 -1
v 0 0 -2
v 0 0 -3
v 0 0 -4
v -1 0 -4
v -2 0 -4
v -3 0 -4
v -4 0 -4
v -5 0 -4
v -6 0 -4
v 2.5 0.5 -4
v 1.5 0.5 -3
v 2.5 0.5 -3
v 1.5 0.5 -4
v -1 0 -3
v -1 0 -2
v -1 0 -1
v -1 0 0
v -2 0 -3
v -3 0 -3
v -4 0 -3
v -5 0 -3
v -1 0 1
v -1 0 2
v -6 0 4
v -5 0 5
v -5 0 4
v -6 0 5
v -3 0 3
v -2 0 4
v -2 0 3
v -3 0 4
v -2 0 5
v -3 0 5
v -6 0 0
v -5 0 1
v -5 0 0
v -6 0 1
v -3 0 1
v -2 0 2
v -2 0 1
v -3 0 2
v -4 0 1
v -4 0 2
v -5 0 2
v -4 0 0
v -3 0 0
v -6 0 2
v -6 0 3
v -5 0 3
v -4 0 4
v -4 0 3
v -1 0 4
v -1 0 3
v -1 0 5
v 7 4 -8
v 7 5 -9
v 7 5 -8
v 7 4 -9
v 7 4 -7
v 7 5 -7
v -2 0 0
v -6 0 -3
v -5 0 -2
v -6 0 -2
v -4 0 -1
v -4 0 -2
v -5 0 -1
v -3 0 -1
v -2 0 -1
v -3 0 -2
v -2 0 -2
v -6 0 -1
v -1 3 -7
v -1 3 -6
v -1 3 -5
v -4 3 -5
v -3 3 -5
v -4 3 -6
v -3 3 -6
v -4 3 -7
v -3 3 -7
v -2 3 -6
v -2 3 -7
v -2 3 -5
v -5 3 -5
v -5 3 -6
v -5 3 -7
v -6 3 -7
v -6 3 -6
v -6 3 -5
v 0 4 -6
v 0 4 -7
v 0 4 -5
v 0 5 -5
v 0 5 -6
v 0 5 -7
v 0 6 -6
v 0 6 -7
v 0 6 -5
v 1.5 -0.5 -3
v 2.5 -0.5 -3
v 2.5 -0.5 -4
v 1.5 -0.5 -4
v -6 2 -3
v -5 2 -3
v -4 2 -3
v -5 1 -3
v -4 1 -3
v -6 1 -3
v -6 1 -2
v -5 1 -2
v -4 1 -2
v 7 3 -8
v 6 3 -8
v 5 3 -8
v 4 3 -8
v 5 3 -9
v 4 3 -9
v 6 3 -9
v 7 3 -9
v 7 3 -10
v 6 3 -10
v 5 3 -10
v 4 3 -10
v 3 3 -8
v 3 3 -9
v 3 3 -10
v 2 4 -7
v 3 4 -7
v 1 4 -7
v 3 4 -9
v 3 4 -10
v 3 4 -8
v 3 5 -9
v 3 5 -10
v 3 5 -8
v 3 5 -7
v 2 5 -7
v 1 5 -7
v 1 6 -7
v 2 6 -7
v 3 6 -7
v 3 6 -8
v 3 6 -9
v 3 6 -10
v 4 4 -10
v 5 4 -10
v 6 4 -10
v 7 4 -10
v 7 4 -5
v 7 4 -6
v 4 5 -10
v 5 5 -10
v 6 5 -10
v 7 5 -10
v 5 6 -10
v 6 6 -10
v 4 6 -10
v 7 6 -10
v 7 6 -5
v 7 5 -5
v 7 6 -6
v 7 5 -6
v 7 6 -7
v 7 6 -8
v 7 6 -9
v -4 0 5
v -6 0 6
v -5 0 6
v -4 0 6
v -1 0 6
v -3 0 6
v -2 0 6
v -6 0 7
v -5 0 7
v -4 0 7
v -3 0 7
v -2 0 7
v -1 0 7
v -1 -1 7
v -2 -1 7
v -3 -1 7
v -5 -1 7
v -4 -1 7
v -6 -1 7
v -1 -2 7
v -2 -2 7
v -4 -2 7
v -3 -2 7
v -5 -2 7
v -6 -2 7
v 2 3 -9
v 2 3 -10
v 2 3 -8
v 1 3 -8
v 0 3 -8
v -1 3 -8
v -2 3 -8
v 1 3 -10
v 0 3 -9
v 1 3 -9
v 0 3 -10
v -4 3 -11
v -5 3 -10
v -4 3 -10
v -5 3 -11
v -1 3 -9
v -1 3 -10
v -2 3 -9
v -3 3 -8
v -3 3 -9
v 1 3 -12
v 0 3 -11
v 1 3 -11
v 0 3 -12
v -4 3 -8
v -4 3 -9
v -5 3 -8
v -5 3 -9
v -6 3 -8
v -3 3 -11
v -3 3 -10
v -2 3 -10
v -6 3 -9
v 6 6 -5
v 6 6 -6
v 6 6 -7
v 6 6 -8
v 6 6 -9
v 5 6 -9
v 4 6 -9
v 4 6 -8
v 4 6 -7
v 3 6 -6
v 4 6 -6
v 2 6 -6
v 1 6 -6
v 1 6 -5
v 2 6 -5
v 5 6 -5
v 4 6 -5
v 3 6 -5
v 5 6 -6
v 5 6 -7
v 5 6 -8
v -5 3 -12
v -6 3 -11
v -6 3 -12
v -6 3 -10
v -2 3 -11
v -1 3 -11
v 2 3 -11
v 3 3 -11
v 4 3 -11
v 5 3 -11
v 6 3 -11
v 7 3 -11
v 7 3 -12
v 6 3 -12
v 5 3 -12
v 4 3 -12
v 3 3 -12
v 2 3 -12
v -1 3 -12
v -2 3 -12
v -3 3 -12
v -4 3 -12
v -5 3 -13
v -6 3 -13
v -4 3 -13
v -3 3 -13
v -2 3 -13
v -1 3 -13
v 0 3 -13
v 1 3 -13
v 2 3 -13
v 3 3 -13
v 4 3 -13
v 5 3 -13
v 6 3 -13
v 7 3 -13
v -5 -3 7
v -4 -3 7
v -3 -3 7
v -2 -3 7
v -1 -3 7
v -1 -4 7
v 0 -3 7
v 0 -4 7
v 1 -3 7
v 1 -4 7
v 2 -3 7
v 2 -4 7
v 3 -3 7
v 3 -4 7
v 4 -3 7
v 4 -4 7
v 5 -3 7
v 5 -4 7
v 6 -3 7
v 7 -3 7
v 6 -4 7
v 7 -4 7
v -2 -4 7
v -3 -4 7
v -6 -3 7
v -6 -4 7
v -5 -4 7
v -4 -4 7
v -6 -4 8
v -5 -4 8
v -4 -4 8
v -3 -4 8
v -2 -4 8
v -1 -4 8
v 0 -4 8
v 1 -4 8
v 2 -4 8
v 3 -4 8
v 4 -4 8
v 5 -4 8
v 6 -4 8
v 7 -4 8
v 6 -4 9
v 7 -4 9
v 5 -4 10
v 5 -4 9
v 6 -4 10
v 3 -4 10
v 4 -4 9
v 3 -4 9
v 4 -4 10
v 2 -4 9
v 1 -4 9
v 0 -4 9
v -1 -4 9
v -2 -4 9
v -3 -4 9
v -4 -4 9
v -5 -4 9
v -6 -4 9
v -6 -4 10
v -5 -4 10
v -4 -4 10
v -3 -4 10
v -2 -4 10
v 0 -4 10
v 1 -4 10
v -1 -4 12
v 0 -4 11
v -1 -4 11
v 0 -4 12
v 2 -4 10
v 3 -4 11
v 4 -4 11
v 2 -4 12
v 3 -4 13
v 3 -4 12
v 2 -4 13
v 7 -4 10
v -1 -4 10
v -4 -4 11
v -3 -4 11
v -5 -4 11
v -6 -4 11
v -2 -4 12
v -2 -4 11
v -3 -4 12
v 1 -4 11
v 1 -4 12
v 1 -4 13
v 5 -4 11
v 2 -4 11
v 6 -4 11
v 7 -4 11
v -4 -4 12
v -6 -4 12
v -5 -4 12
v 0 -4 15
v 1 -4 16
v 1 -4 15
v 0 -4 16
v 5 -4 12
v 6 -4 12
v -1 -4 14
v 0 -4 14
v -1 -4 15
v 0 -4 13
v -1 -4 13
v 4 -4 13
v 4 -4 12
v 6 -4 14
v 7 -4 15
v 7 -4 14
v 6 -4 15
v 6 -4 13
v 7 -4 12
v 7 -4 13
v 5 -4 13
v 1 -4 14
v -2 -4 14
v -2 -4 15
v -2 -4 13
v -3 -4 13
v -4 -4 13
v -3 -4 14
v -5 -4 13
v -6 -4 13
v -5 -4 14
v -6 -4 14
v -4 -4 14
v -3 -4 15
v -4 -4 15
v 2 -4 14
v 3 -4 15
v 3 -4 14
v 2 -4 15
v 4 -4 15
v 5 -4 16
v 5 -4 15
v 4 -4 16
v 5 -4 14
v 4 -4 14
v 2 -4 16
v 3 -4 16
v -5 -4 15
v -6 -4 15
v -5 -4 16
v -6 -4 16
v -4 -4 16
v -3 -4 16
v -2 -4 16
v -1 -4 16
v 7 -4 16
v 6 -4 16
v 5 -1 8
v 6 -1 8
v 7 -1 8
v 4 -1 8
v 3 -1 8
v 3 -2 8
v 4 -2 8
v 5 -2 8
v 6 -2 8
v 7 -2 8
v 3 -2 9
v 4 -2 9
v 5 -2 9
v 6 -2 9
v 7 -2 9
v 3 -3 9
v 4 -3 9
v 5 -3 9
v 6 -3 9
v 7 -3 9
v 6 -3 10
v 7 -3 10
v 5 -3 10
v 4 -3 10
v 3 -3 10
v 3 -3 8
v 7 -3 8
vt 0.125 0.875
vt 0.25 1
vt 0.125 1
vt 0.25 0.875
vt 0 0.875
vt 0 1
vt 0.25 0.25
vt 0.375 0.375
vt 0.25 0.375
vt 0.375 0.25
vt 0 0.375
vt 0.125 0.5
vt 0 0.5
vt 0.125 0.375
vt 0.125 0.25
vt 0 0.75
vt 0.125 0.75
vt 0.25 0.625
vt 0.125 0.625
vt 0.25 0.75
vt 0 0.625
vt 0.25 0.5
vt 0.5 0.375
vt 0.5 0.25
vt 0.5 0
vt 0.625 0.125
vt 0.5 0.125
vt 0.625 0
vt 0.75 0.125
vt 0.75 0
vt 0.875 0.25
vt 0.75 0.25
vt 0.875 0.125
vt 0.875 0
vt 0.375 0.125
vt 0.625 0.25
vt 0.75 0.375
vt 0.625 0.375
vt 0.375 0
vt 0.125 0.125
vt 0.25 0.125
vt 0 0.25
vt 0 0.125
vt 0.625 0.5
vt 0.5 0.5
vn 0 0 1
vn 0 1 0
vn -1 0 0
vn 1 0 0
vn 0 0 -1
vn 0 -1 0
g Scene
usemtl texture_bigfoot_trees
f 1/1/1 2/2/1 3/3/1
f 1/1/1 4/4/1 2/2/1
f 5/5/1 1/3/1 6/6/1
f 5/5/1 7/1/1 1/3/1
f 6/5/1 3/3/1 8/6/1
f 6/5/1 1/1/1 3/3/1
f 9/7/2 10/8/2 11/9/2
f 9/7/2 12/10/2 10/8/2
f 13/5/1 14/3/1 15/6/1
f 13/5/1 16/1/1 14/3/1
f 17/5/1 6/3/1 18/6/1
f 17/5/1 5/1/1 6/3/1
f 19/1/1 20/2/1 21/3/1
f 19/1/1 22/4/1 20/2/1
f 22/1/1 15/2/1 20/3/1
f 22/1/1 13/4/1 15/2/1
f 23/11/2 22/12/2 19/13/2
f 23/11/2 24/14/2 22/12/2
f 18/1/1 8/2/1 25/3/1
f 18/1/1 6/4/1 8/2/1
f 7/1/1 4/2/1 1/3/1
f 7/1/1 26/4/1 4/2/1
f 15/1/1 27/2/1 28/3/1
f 15/1/1 14/4/1 27/2/1
f 21/1/1 29/2/1 30/3/1
f 21/1/1 20/4/1 29/2/1
f 16/5/1 18/3/1 14/6/1
f 16/5/1 17/1/1 18/3/1
f 31/11/2 5/12/2 17/13/2
f 31/11/2 32/14/2 5/12/2
f 24/7/2 13/8/2 22/9/2
f 24/7/2 33/10/2 13/8/2
f 33/7/2 16/8/2 13/9/2
f 33/7/2 34/10/2 16/8/2
f 34/7/2 17/8/2 16/9/2
f 34/7/2 31/10/2 17/8/2
f 35/11/2 26/12/2 7/13/2
f 35/11/2 36/14/2 26/12/2
f 32/7/2 7/8/2 5/9/2
f 32/7/2 35/10/2 7/8/2
f 37/11/2 11/12/2 38/13/2
f 37/11/2 39/14/2 11/12/2
f 40/7/2 36/8/2 35/9/2
f 40/7/2 41/10/2 36/8/2
f 42/7/2 35/8/2 32/9/2
f 42/7/2 40/10/2 35/8/2
f 43/7/2 24/8/2 23/9/2
f 43/7/2 44/10/2 24/8/2
f 45/7/2 31/8/2 34/9/2
f 45/7/2 46/10/2 31/8/2
f 47/7/2 34/8/2 33/9/2
f 47/7/2 45/10/2 34/8/2
f 44/7/2 33/8/2 24/9/2
f 44/7/2 47/10/2 33/8/2
f 46/7/2 32/8/2 31/9/2
f 46/7/2 42/10/2 32/8/2
f 48/15/2 40/9/2 49/14/2
f 48/15/2 41/7/2 40/9/2
f 50/15/2 46/9/2 12/14/2
f 50/15/2 42/7/2 46/9/2
f 10/15/2 47/9/2 51/14/2
f 10/15/2 45/7/2 47/9/2
f 51/15/2 44/9/2 52/14/2
f 51/15/2 47/7/2 44/9/2
f 52/15/2 43/9/2 53/14/2
f 52/15/2 44/7/2 43/9/2
f 12/15/2 45/9/2 10/14/2
f 12/15/2 46/7/2 45/9/2
f 49/15/2 42/9/2 50/14/2
f 49/15/2 40/7/2 42/9/2
f 54/7/2 55/8/2 56/9/2
f 54/7/2 57/10/2 55/8/2
f 57/7/2 53/8/2 55/9/2
f 57/7/2 52/10/2 53/8/2
f 58/7/2 49/8/2 59/9/2
f 58/7/2 48/10/2 49/8/2
f 37/7/2 57/8/2 54/9/2
f 37/7/2 38/10/2 57/8/2
f 39/11/2 9/12/2 11/13/2
f 39/11/2 60/14/2 9/12/2
f 59/7/2 50/8/2 61/9/2
f 59/7/2 49/10/2 50/8/2
f 60/11/2 61/12/2 9/13/2
f 60/11/2 62/14/2 61/12/2
f 63/7/2 59/8/2 64/9/2
f 63/7/2 58/10/2 59/8/2
f 61/7/2 12/8/2 9/9/2
f 61/7/2 50/10/2 12/8/2
f 64/7/2 61/8/2 62/9/2
f 64/7/2 59/10/2 61/8/2
f 38/7/2 52/8/2 57/9/2
f 38/7/2 51/10/2 52/8/2
f 11/7/2 51/8/2 38/9/2
f 11/7/2 10/10/2 51/8/2
f 14/5/1 25/3/1 27/6/1
f 14/5/1 18/1/1 25/3/1
f 20/1/1 28/2/1 29/3/1
f 20/1/1 15/4/1 28/2/1
f 30/16/1 65/1/1 66/5/1
f 30/16/1 29/17/1 65/1/1
f 29/16/1 67/1/1 65/5/1
f 29/16/1 28/17/1 67/1/1
f 27/16/1 68/1/1 69/5/1
f 27/16/1 25/17/1 68/1/1
f 25/16/1 70/1/1 68/5/1
f 25/16/1 8/17/1 70/1/1
f 8/16/1 71/1/1 70/5/1
f 8/16/1 3/17/1 71/1/1
f 3/16/1 72/1/1 71/5/1
f 3/16/1 2/17/1 72/1/1
f 28/16/1 69/1/1 67/5/1
f 28/16/1 27/17/1 69/1/1
f 73/18/2 65/17/2 74/19/2
f 73/18/2 66/20/2 65/17/2
f 74/18/2 67/17/2 75/19/2
f 74/18/2 65/20/2 67/17/2
f 75/18/2 69/17/2 76/19/2
f 75/18/2 67/20/2 69/17/2
f 76/18/2 68/17/2 77/19/2
f 76/18/2 69/20/2 68/17/2
f 77/18/2 70/17/2 78/19/2
f 77/18/2 68/20/2 70/17/2
f 79/18/2 72/17/2 80/19/2
f 79/18/2 71/20/2 72/17/2
f 78/18/2 71/17/2 79/19/2
f 78/18/2 70/20/2 71/17/2
f 74/12/2 81/21/2 73/13/2
f 74/12/2 82/19/2 81/21/2
f 75/12/2 82/21/2 74/13/2
f 75/12/2 83/19/2 82/21/2
f 84/12/2 85/21/2 86/13/2
f 84/12/2 87/19/2 85/21/2
f 88/22/2 89/19/2 90/12/2
f 88/22/2 91/18/2 89/19/2
f 92/22/2 93/19/2 94/12/2
f 92/22/2 95/18/2 93/19/2
f 96/12/2 92/21/2 97/13/2
f 96/12/2 98/19/2 92/21/2
f 99/22/2 91/19/2 88/12/2
f 99/22/2 94/18/2 91/19/2
f 79/12/2 99/21/2 78/13/2
f 79/12/2 97/19/2 99/21/2
f 77/22/2 90/19/2 76/12/2
f 77/22/2 88/18/2 90/19/2
f 80/12/2 97/21/2 79/13/2
f 80/12/2 96/19/2 97/21/2
f 94/22/2 100/19/2 91/12/2
f 94/22/2 93/18/2 100/19/2
f 97/22/2 94/19/2 99/12/2
f 97/22/2 92/18/2 94/19/2
f 90/22/2 101/19/2 83/12/2
f 90/22/2 89/18/2 101/19/2
f 76/12/2 83/21/2 75/13/2
f 76/12/2 90/19/2 83/21/2
f 78/22/2 88/19/2 77/12/2
f 78/22/2 99/18/2 88/19/2
f 91/12/2 102/21/2 89/13/2
f 91/12/2 100/19/2 102/21/2
f 89/12/2 103/21/2 101/13/2
f 89/12/2 102/19/2 103/21/2
f 101/12/2 87/21/2 84/13/2
f 101/12/2 103/19/2 87/21/2
f 83/12/2 84/21/2 82/13/2
f 83/12/2 101/19/2 84/21/2
f 82/12/2 86/21/2 81/13/2
f 82/12/2 84/19/2 86/21/2
f 98/22/2 95/19/2 92/12/2
f 98/22/2 104/18/2 95/19/2
f 105/10/1 106/23/1 107/8/1
f 105/10/1 108/24/1 106/23/1
f 93/25/1 109/26/1 110/27/1
f 93/25/1 95/28/1 109/26/1
f 100/25/1 110/26/1 111/27/1
f 100/25/1 93/28/1 110/26/1
f 102/25/1 111/26/1 112/27/1
f 102/25/1 100/28/1 111/26/1
f 87/25/1 113/26/1 114/27/1
f 87/25/1 103/28/1 113/26/1
f 103/25/1 112/26/1 113/27/1
f 103/25/1 102/28/1 112/26/1
f 95/28/1 115/29/1 109/26/1
f 95/28/1 104/30/1 115/29/1
f 114/29/1 116/31/1 108/32/1
f 114/29/1 113/33/1 116/31/1
f 113/30/1 117/33/1 116/29/1
f 113/30/1 112/34/1 117/33/1
f 118/35/1 108/24/1 105/10/1
f 118/35/1 114/27/1 108/24/1
f 112/27/1 119/36/1 117/24/1
f 112/27/1 111/26/1 119/36/1
f 111/27/1 120/36/1 119/24/1
f 111/27/1 110/26/1 120/36/1
f 110/27/1 121/36/1 120/24/1
f 110/27/1 109/26/1 121/36/1
f 109/26/1 122/32/1 121/36/1
f 109/26/1 115/29/1 122/32/1
f 121/36/1 123/37/1 124/38/1
f 121/36/1 122/32/1 123/37/1
f 120/24/1 124/38/1 125/23/1
f 120/24/1 121/36/1 124/38/1
f 119/24/1 125/38/1 126/23/1
f 119/24/1 120/36/1 125/38/1
f 117/24/1 126/38/1 127/23/1
f 117/24/1 119/36/1 126/38/1
f 116/24/1 127/38/1 128/23/1
f 116/24/1 117/36/1 127/38/1
f 108/24/1 128/38/1 106/23/1
f 108/24/1 116/36/1 128/38/1
f 85/39/1 114/27/1 118/35/1
f 85/39/1 87/25/1 114/27/1
f 129/40/2 87/7/2 130/15/2
f 129/40/2 85/41/2 87/7/2
f 130/40/2 103/7/2 131/15/2
f 130/40/2 87/41/2 103/7/2
f 132/40/2 133/7/2 134/15/2
f 132/40/2 135/41/2 133/7/2
f 135/40/2 136/7/2 133/15/2
f 135/40/2 137/41/2 136/7/2
f 137/40/2 138/7/2 136/15/2
f 137/40/2 139/41/2 138/7/2
f 140/40/2 141/7/2 142/15/2
f 140/40/2 143/41/2 141/7/2
f 143/40/2 95/7/2 141/15/2
f 143/40/2 93/41/2 95/7/2
f 144/40/2 93/7/2 143/15/2
f 144/40/2 100/41/2 93/7/2
f 145/40/2 100/7/2 144/15/2
f 145/40/2 102/41/2 100/7/2
f 131/40/2 102/7/2 145/15/2
f 131/40/2 103/41/2 102/7/2
f 146/40/2 95/7/2 104/15/2
f 146/40/2 141/41/2 95/7/2
f 147/40/2 141/7/2 146/15/2
f 147/40/2 142/41/2 141/7/2
f 133/40/2 130/7/2 131/15/2
f 133/40/2 136/41/2 130/7/2
f 136/40/2 129/7/2 130/15/2
f 136/40/2 138/41/2 129/7/2
f 148/40/2 142/7/2 147/15/2
f 148/40/2 149/41/2 142/7/2
f 149/40/2 140/7/2 142/15/2
f 149/40/2 150/41/2 140/7/2
f 150/40/2 151/7/2 140/15/2
f 150/40/2 152/41/2 151/7/2
f 151/40/2 143/7/2 140/15/2
f 151/40/2 144/41/2 143/7/2
f 134/40/2 144/7/2 151/15/2
f 134/40/2 145/41/2 144/7/2
f 152/40/2 134/7/2 151/15/2
f 152/40/2 132/41/2 134/7/2
f 133/40/2 145/7/2 134/15/2
f 133/40/2 131/41/2 145/7/2
f 153/21/2 63/17/2 64/16/2
f 153/21/2 154/19/2 63/17/2
f 155/21/2 64/17/2 62/16/2
f 155/21/2 153/19/2 64/17/2
f 156/21/2 62/17/2 60/16/2
f 156/21/2 155/19/2 62/17/2
f 157/21/2 60/17/2 39/16/2
f 157/21/2 156/19/2 60/17/2
f 158/21/2 39/17/2 37/16/2
f 158/21/2 157/19/2 39/17/2
f 159/21/2 37/17/2 54/16/2
f 159/21/2 158/19/2 37/17/2
f 160/21/2 54/17/2 56/16/2
f 160/21/2 159/19/2 54/17/2
f 161/12/2 159/18/2 160/19/2
f 161/12/2 162/22/2 159/18/2
f 162/12/2 158/18/2 159/19/2
f 162/12/2 163/22/2 158/18/2
f 163/12/2 157/18/2 158/19/2
f 163/12/2 164/22/2 157/18/2
f 164/12/2 156/18/2 157/19/2
f 164/12/2 165/22/2 156/18/2
f 165/12/2 155/18/2 156/19/2
f 165/12/2 166/22/2 155/18/2
f 167/12/2 154/18/2 153/19/2
f 167/12/2 168/22/2 154/18/2
f 166/12/2 153/18/2 155/19/2
f 166/12/2 167/22/2 153/18/2
f 169/17/1 162/4/1 161/1/1
f 169/17/1 170/20/1 162/4/1
f 170/17/1 163/4/1 162/1/1
f 170/17/1 171/20/1 163/4/1
f 171/17/1 164/4/1 163/1/1
f 171/17/1 172/20/1 164/4/1
f 172/17/1 165/4/1 164/1/1
f 172/17/1 173/20/1 165/4/1
f 173/17/1 166/4/1 165/1/1
f 173/17/1 174/20/1 166/4/1
f 174/17/1 167/4/1 166/1/1
f 174/17/1 175/20/1 167/4/1
f 175/17/1 168/4/1 167/1/1
f 175/17/1 176/20/1 168/4/1
f 177/5/1 175/3/1 174/6/1
f 177/5/1 178/1/1 175/3/1
f 179/5/1 174/3/1 173/6/1
f 179/5/1 177/1/1 174/3/1
f 180/5/1 173/3/1 172/6/1
f 180/5/1 179/1/1 173/3/1
f 181/5/1 171/3/1 170/6/1
f 181/5/1 182/1/1 171/3/1
f 178/5/1 176/3/1 175/6/1
f 178/5/1 183/1/1 176/3/1
f 184/5/1 170/3/1 169/6/1
f 184/5/1 181/1/1 170/3/1
f 182/5/1 172/3/1 171/6/1
f 182/5/1 180/1/1 172/3/1
f 185/16/1 85/1/1 186/5/1
f 185/16/1 187/17/1 85/1/1
f 188/16/1 186/1/1 189/5/1
f 188/16/1 185/17/1 186/1/1
f 190/16/1 189/1/1 191/5/1
f 190/16/1 188/17/1 189/1/1
f 192/16/1 191/1/1 193/5/1
f 192/16/1 190/17/1 191/1/1
f 194/16/1 193/1/1 195/5/1
f 194/16/1 192/17/1 193/1/1
f 196/16/1 195/1/1 197/5/1
f 196/16/1 194/17/1 195/1/1
f 187/17/3 86/4/3 85/1/3
f 187/17/3 198/20/3 86/4/3
f 198/17/3 81/4/3 86/1/3
f 198/17/3 199/20/3 81/4/3
f 199/17/3 73/4/3 81/1/3
f 199/17/3 200/20/3 73/4/3
f 200/17/3 66/4/3 73/1/3
f 200/17/3 30/20/3 66/4/3
f 201/5/1 194/3/1 196/6/1
f 201/5/1 202/1/1 194/3/1
f 203/5/1 190/3/1 192/6/1
f 203/5/1 204/1/1 190/3/1
f 205/5/1 185/3/1 188/6/1
f 205/5/1 206/1/1 185/3/1
f 204/5/1 188/3/1 190/6/1
f 204/5/1 205/1/1 188/3/1
f 206/5/1 187/3/1 185/6/1
f 206/5/1 207/1/1 187/3/1
f 202/5/1 192/3/1 194/6/1
f 202/5/1 203/1/1 192/3/1
f 207/5/3 198/3/3 187/6/3
f 207/5/3 208/1/3 198/3/3
f 208/5/3 199/3/3 198/6/3
f 208/5/3 209/1/3 199/3/3
f 209/5/3 200/3/3 199/6/3
f 209/5/3 210/1/3 200/3/3
f 210/5/3 30/3/3 200/6/3
f 210/5/3 21/1/3 30/3/3
f 211/5/3 21/3/3 210/6/3
f 211/5/3 19/1/3 21/3/3
f 212/5/3 210/3/3 209/6/3
f 212/5/3 211/1/3 210/3/3
f 213/5/3 209/3/3 208/6/3
f 213/5/3 212/1/3 209/3/3
f 214/5/3 208/3/3 207/6/3
f 214/5/3 213/1/3 208/3/3
f 215/5/1 207/3/1 206/6/1
f 215/5/1 214/1/1 207/3/1
f 216/5/1 206/3/1 205/6/1
f 216/5/1 215/1/1 206/3/1
f 217/5/1 205/3/1 204/6/1
f 217/5/1 216/1/1 205/3/1
f 218/5/1 204/3/1 203/6/1
f 218/5/1 217/1/1 204/3/1
f 219/5/1 203/3/1 202/6/1
f 219/5/1 218/1/1 203/3/1
f 220/5/1 202/3/1 201/6/1
f 220/5/1 219/1/1 202/3/1
f 221/13/2 222/19/2 223/21/2
f 221/13/2 224/12/2 222/19/2
f 225/21/2 212/17/2 213/16/2
f 225/21/2 226/19/2 212/17/2
f 226/21/2 211/17/2 212/16/2
f 226/21/2 227/19/2 211/17/2
f 227/21/2 19/17/2 211/16/2
f 227/21/2 228/19/2 19/17/2
f 216/16/2 225/19/2 215/17/2
f 216/16/2 229/21/2 225/19/2
f 217/16/2 229/19/2 216/17/2
f 217/16/2 230/21/2 229/19/2
f 218/16/2 230/19/2 217/17/2
f 218/16/2 231/21/2 230/19/2
f 219/16/2 231/19/2 218/17/2
f 219/16/2 232/21/2 231/19/2
f 215/21/2 213/17/2 214/16/2
f 215/21/2 225/19/2 213/17/2
f 233/9/2 43/10/2 23/8/2
f 233/9/2 234/7/2 43/10/2
f 235/9/2 236/10/2 237/8/2
f 235/9/2 238/7/2 236/10/2
f 239/9/2 240/10/2 241/8/2
f 239/9/2 242/7/2 240/10/2
f 242/11/2 243/15/2 240/14/2
f 242/11/2 244/42/2 243/15/2
f 228/9/2 23/10/2 19/8/2
f 228/9/2 233/7/2 23/10/2
f 245/11/2 246/12/2 247/13/2
f 245/11/2 248/14/2 246/12/2
f 249/9/2 250/10/2 251/8/2
f 249/9/2 252/7/2 250/10/2
f 253/9/2 252/10/2 249/8/2
f 253/9/2 254/7/2 252/10/2
f 246/9/2 254/10/2 253/8/2
f 246/9/2 255/7/2 254/10/2
f 247/9/2 253/10/2 256/8/2
f 247/9/2 246/7/2 253/10/2
f 256/12/2 249/11/2 257/14/2
f 256/12/2 253/13/2 249/11/2
f 248/9/2 255/10/2 246/8/2
f 248/9/2 258/7/2 255/10/2
f 259/9/2 237/10/2 260/8/2
f 259/9/2 235/7/2 237/10/2
f 260/9/2 261/10/2 262/8/2
f 260/9/2 237/7/2 261/10/2
f 262/9/2 242/10/2 239/8/2
f 262/9/2 261/7/2 242/10/2
f 241/9/2 263/10/2 264/8/2
f 241/9/2 240/7/2 263/10/2
f 264/9/2 55/10/2 53/8/2
f 264/9/2 263/7/2 55/10/2
f 263/9/2 56/10/2 55/8/2
f 263/9/2 265/7/2 56/10/2
f 240/9/2 265/10/2 263/8/2
f 240/9/2 243/7/2 265/10/2
f 266/27/4 267/36/4 268/24/4
f 266/27/4 269/26/4 267/36/4
f 270/27/4 268/36/4 271/24/4
f 270/27/4 266/26/4 268/36/4
f 257/9/2 251/10/2 272/8/2
f 257/9/2 249/7/2 251/10/2
f 272/9/2 233/10/2 228/8/2
f 272/9/2 251/7/2 233/10/2
f 251/13/2 234/14/2 233/12/2
f 251/13/2 250/11/2 234/14/2
f 250/14/2 264/22/2 234/12/2
f 250/14/2 241/9/2 264/22/2
f 252/14/2 241/22/2 250/12/2
f 252/14/2 239/9/2 241/22/2
f 255/14/2 262/22/2 254/12/2
f 255/14/2 260/9/2 262/22/2
f 234/22/2 53/14/2 43/9/2
f 234/22/2 264/12/2 53/14/2
f 254/9/2 239/15/2 252/7/2
f 254/9/2 262/14/2 239/15/2
f 258/9/2 260/15/2 255/7/2
f 258/9/2 259/14/2 260/15/2
f 273/19/2 274/13/2 232/12/2
f 273/19/2 275/21/2 274/13/2
f 274/19/2 276/13/2 277/12/2
f 274/19/2 278/21/2 276/13/2
f 279/18/2 272/12/2 280/22/2
f 279/18/2 257/19/2 272/12/2
f 276/19/2 257/13/2 279/12/2
f 276/19/2 256/21/2 257/13/2
f 277/18/2 279/12/2 281/22/2
f 277/18/2 276/19/2 279/12/2
f 231/18/2 281/12/2 230/22/2
f 231/18/2 277/19/2 281/12/2
f 230/19/2 282/13/2 229/12/2
f 230/19/2 281/21/2 282/13/2
f 229/19/2 226/13/2 225/12/2
f 229/19/2 282/21/2 226/13/2
f 281/18/2 280/12/2 282/22/2
f 281/18/2 279/19/2 280/12/2
f 282/18/2 227/12/2 226/22/2
f 282/18/2 280/19/2 227/12/2
f 280/18/2 228/12/2 227/22/2
f 280/18/2 272/19/2 228/12/2
f 275/19/2 278/13/2 274/12/2
f 275/19/2 283/21/2 278/13/2
f 283/19/2 247/13/2 278/12/2
f 283/19/2 245/21/2 247/13/2
f 278/19/2 256/13/2 276/12/2
f 278/19/2 247/21/2 256/13/2
f 232/22/2 277/19/2 231/12/2
f 232/22/2 274/18/2 277/19/2
f 284/21/2 138/17/2 139/16/2
f 284/21/2 285/19/2 138/17/2
f 285/21/2 129/17/2 138/16/2
f 285/21/2 286/19/2 129/17/2
f 286/21/2 85/17/2 129/16/2
f 286/21/2 186/19/2 85/17/2
f 287/13/2 191/19/2 288/21/2
f 287/13/2 193/12/2 191/19/2
f 289/13/2 288/19/2 290/21/2
f 289/13/2 287/12/2 288/19/2
f 291/13/2 290/19/2 292/21/2
f 291/13/2 289/12/2 290/19/2
f 292/13/2 293/19/2 294/21/2
f 292/13/2 290/12/2 293/19/2
f 294/13/2 285/19/2 284/21/2
f 294/13/2 293/12/2 285/19/2
f 290/13/2 295/19/2 293/21/2
f 290/13/2 288/12/2 295/19/2
f 293/13/2 286/19/2 285/21/2
f 293/13/2 295/12/2 286/19/2
f 295/13/2 186/19/2 286/21/2
f 295/13/2 189/12/2 186/19/2
f 288/13/2 189/19/2 295/21/2
f 288/13/2 191/12/2 189/19/2
f 296/13/2 193/19/2 287/21/2
f 296/13/2 195/12/2 193/19/2
f 297/13/2 287/19/2 289/21/2
f 297/13/2 296/12/2 287/19/2
f 298/13/2 289/19/2 291/21/2
f 298/13/2 297/12/2 289/19/2
f 299/13/2 297/19/2 298/21/2
f 299/13/2 300/12/2 297/19/2
f 300/13/2 296/19/2 297/21/2
f 300/13/2 301/12/2 296/19/2
f 301/13/2 195/19/2 296/21/2
f 301/13/2 197/12/2 195/19/2
f 139/25/3 302/26/3 303/27/3
f 139/25/3 138/28/3 302/26/3
f 129/25/3 118/26/3 304/27/3
f 129/25/3 85/28/3 118/26/3
f 304/26/3 105/32/3 305/36/3
f 304/26/3 118/29/3 105/32/3
f 303/35/3 306/24/3 307/10/3
f 303/35/3 302/27/3 306/24/3
f 307/10/3 308/23/3 309/8/3
f 307/10/3 306/24/3 308/23/3
f 306/24/3 310/38/3 308/23/3
f 306/24/3 305/36/3 310/38/3
f 305/36/3 107/37/3 310/38/3
f 305/36/3 105/32/3 107/37/3
f 311/13/1 223/19/1 222/21/1
f 311/13/1 312/12/1 223/19/1
f 312/13/4 221/19/4 223/21/4
f 312/13/4 313/12/4 221/19/4
f 313/13/5 224/19/5 221/21/5
f 313/13/5 314/12/5 224/19/5
f 314/13/3 222/19/3 224/21/3
f 314/13/3 311/12/3 222/19/3
f 314/13/6 312/19/6 311/21/6
f 314/13/6 313/12/6 312/19/6
f 220/16/2 232/19/2 219/17/2
f 220/16/2 273/21/2 232/19/2
f 315/13/2 194/19/2 196/21/2
f 315/13/2 316/12/2 194/19/2
f 316/13/2 192/19/2 194/21/2
f 316/13/2 317/12/2 192/19/2
f 318/13/1 317/19/1 316/21/1
f 318/13/1 319/12/1 317/19/1
f 320/13/1 316/19/1 315/21/1
f 320/13/1 318/12/1 316/19/1
f 321/13/2 318/19/2 320/21/2
f 321/13/2 322/12/2 318/19/2
f 322/13/2 319/19/2 318/21/2
f 322/13/2 323/12/2 319/19/2
f 274/13/1 323/19/1 322/21/1
f 274/13/1 277/12/1 323/19/1
f 275/13/1 322/19/1 321/21/1
f 275/13/1 274/12/1 322/19/1
f 273/1/3 321/2/3 320/3/3
f 273/1/3 275/4/3 321/2/3
f 201/16/3 315/1/3 196/5/3
f 201/16/3 320/17/3 315/1/3
f 220/1/3 320/2/3 201/3/3
f 220/1/3 273/4/3 320/2/3
f 277/1/4 319/2/4 323/3/4
f 277/1/4 231/4/4 319/2/4
f 231/1/4 203/2/4 319/3/4
f 231/1/4 218/4/4 203/2/4
f 319/16/4 192/1/4 317/5/4
f 319/16/4 203/17/4 192/1/4
f 324/43/2 149/15/2 148/42/2
f 324/43/2 325/40/2 149/15/2
f 325/43/2 150/15/2 149/42/2
f 325/43/2 326/40/2 150/15/2
f 326/43/2 152/15/2 150/42/2
f 326/43/2 327/40/2 152/15/2
f 328/43/2 327/15/2 326/42/2
f 328/43/2 329/40/2 327/15/2
f 330/43/2 326/15/2 325/42/2
f 330/43/2 328/40/2 326/15/2
f 331/43/2 325/15/2 324/42/2
f 331/43/2 330/40/2 325/15/2
f 332/43/2 330/15/2 331/42/2
f 332/43/2 333/40/2 330/15/2
f 333/43/2 328/15/2 330/42/2
f 333/43/2 334/40/2 328/15/2
f 334/43/2 329/15/2 328/42/2
f 334/43/2 335/40/2 329/15/2
f 327/43/2 132/15/2 152/42/2
f 327/43/2 336/40/2 132/15/2
f 329/43/2 336/15/2 327/42/2
f 329/43/2 337/40/2 336/15/2
f 335/43/2 337/15/2 329/42/2
f 335/43/2 338/40/2 337/15/2
f 132/25/5 339/26/5 340/27/5
f 132/25/5 135/28/5 339/26/5
f 135/25/5 341/26/5 339/27/5
f 135/25/5 137/28/5 341/26/5
f 137/25/5 303/26/5 341/27/5
f 137/25/5 139/28/5 303/26/5
f 338/25/3 342/26/3 343/27/3
f 338/25/3 337/28/3 342/26/3
f 336/25/3 340/26/3 344/27/3
f 336/25/3 132/28/3 340/26/3
f 337/25/3 344/26/3 342/27/3
f 337/25/3 336/28/3 344/26/3
f 343/27/3 345/36/3 346/24/3
f 343/27/3 342/26/3 345/36/3
f 342/27/3 347/36/3 345/24/3
f 342/27/3 344/26/3 347/36/3
f 344/27/3 348/36/3 347/24/3
f 344/27/3 340/26/3 348/36/3
f 340/27/5 349/36/5 348/24/5
f 340/27/5 339/26/5 349/36/5
f 339/27/5 350/36/5 349/24/5
f 339/27/5 341/26/5 350/36/5
f 341/27/5 307/36/5 350/24/5
f 341/27/5 303/26/5 307/36/5
f 350/36/5 309/37/5 351/38/5
f 350/36/5 307/32/5 309/37/5
f 349/24/5 351/38/5 352/23/5
f 349/24/5 350/36/5 351/38/5
f 348/24/5 352/38/5 353/23/5
f 348/24/5 349/36/5 352/38/5
f 348/24/4 354/38/4 353/23/4
f 348/24/4 347/36/4 354/38/4
f 347/24/4 355/38/4 354/23/4
f 347/24/4 345/36/4 355/38/4
f 345/24/4 356/38/4 355/23/4
f 345/24/4 346/36/4 356/38/4
f 335/25/5 343/26/5 357/27/5
f 335/25/5 338/28/5 343/26/5
f 334/25/5 357/26/5 358/27/5
f 334/25/5 335/28/5 357/26/5
f 333/25/5 358/26/5 359/27/5
f 333/25/5 334/28/5 358/26/5
f 332/25/5 359/26/5 360/27/5
f 332/25/5 333/28/5 359/26/5
f 104/25/4 361/26/4 115/27/4
f 104/25/4 146/28/4 361/26/4
f 146/25/4 362/26/4 361/27/4
f 146/25/4 147/28/4 362/26/4
f 147/25/4 270/26/4 362/27/4
f 147/25/4 148/28/4 270/26/4
f 148/25/4 266/26/4 270/27/4
f 148/25/4 324/28/4 266/26/4
f 324/25/4 269/26/4 266/27/4
f 324/25/4 331/28/4 269/26/4
f 331/25/4 360/26/4 269/27/4
f 331/25/4 332/28/4 360/26/4
f 357/27/5 346/36/5 363/24/5
f 357/27/5 343/26/5 346/36/5
f 358/27/5 363/36/5 364/24/5
f 358/27/5 357/26/5 363/36/5
f 359/27/5 364/36/5 365/24/5
f 359/27/5 358/26/5 364/36/5
f 360/35/5 365/24/5 366/10/5
f 360/35/5 359/27/5 365/24/5
f 365/24/5 367/38/5 368/23/5
f 365/24/5 364/36/5 367/38/5
f 364/24/5 369/38/5 367/23/5
f 364/24/5 363/36/5 369/38/5
f 363/36/5 356/37/5 369/38/5
f 363/36/5 346/32/5 356/37/5
f 366/10/5 368/23/5 370/8/5
f 366/10/5 365/24/5 368/23/5
f 122/10/4 371/23/4 123/8/4
f 122/10/4 372/24/4 371/23/4
f 372/24/4 373/38/4 371/23/4
f 372/24/4 374/36/4 373/38/4
f 374/24/4 375/38/4 373/23/4
f 374/24/4 271/36/4 375/38/4
f 271/24/4 376/38/4 375/23/4
f 271/24/4 268/36/4 376/38/4
f 268/24/4 377/38/4 376/23/4
f 268/24/4 267/36/4 377/38/4
f 267/36/4 370/37/4 377/38/4
f 267/36/4 366/32/4 370/37/4
f 115/27/4 372/36/4 122/24/4
f 115/27/4 361/26/4 372/36/4
f 269/27/4 366/36/4 267/24/4
f 269/27/4 360/26/4 366/36/4
f 361/27/4 374/36/4 372/24/4
f 361/27/4 362/26/4 374/36/4
f 362/27/4 271/36/4 374/24/4
f 362/27/4 270/26/4 271/36/4
f 261/9/2 244/10/2 242/8/2
f 261/9/2 378/7/2 244/10/2
f 237/11/2 378/15/2 261/14/2
f 237/11/2 236/42/2 378/15/2
f 379/21/2 236/17/2 238/16/2
f 379/21/2 380/19/2 236/17/2
f 380/21/2 378/17/2 236/16/2
f 380/21/2 381/19/2 378/17/2
f 382/21/2 56/17/2 265/16/2
f 382/21/2 160/19/2 56/17/2
f 381/21/2 244/17/2 378/16/2
f 381/21/2 383/19/2 244/17/2
f 384/21/2 265/17/2 243/16/2
f 384/21/2 382/19/2 265/17/2
f 383/21/2 243/17/2 244/16/2
f 383/21/2 384/19/2 243/17/2
f 385/13/2 380/19/2 379/21/2
f 385/13/2 386/12/2 380/19/2
f 386/13/2 381/19/2 380/21/2
f 386/13/2 387/12/2 381/19/2
f 387/13/2 383/19/2 381/21/2
f 387/13/2 388/12/2 383/19/2
f 388/13/2 384/19/2 383/21/2
f 388/13/2 389/12/2 384/19/2
f 389/13/2 382/19/2 384/21/2
f 389/13/2 390/12/2 382/19/2
f 390/13/2 160/19/2 382/21/2
f 390/13/2 161/12/2 160/19/2
f 391/17/1 161/4/1 390/1/1
f 391/17/1 169/20/1 161/4/1
f 392/17/1 390/4/1 389/1/1
f 392/17/1 391/20/1 390/4/1
f 393/17/1 389/4/1 388/1/1
f 393/17/1 392/20/1 389/4/1
f 394/17/1 387/4/1 386/1/1
f 394/17/1 395/20/1 387/4/1
f 395/17/1 388/4/1 387/1/1
f 395/17/1 393/20/1 388/4/1
f 396/17/1 386/4/1 385/1/1
f 396/17/1 394/20/1 386/4/1
f 397/5/1 169/3/1 391/6/1
f 397/5/1 184/1/1 169/3/1
f 398/5/1 391/3/1 392/6/1
f 398/5/1 397/1/1 391/3/1
f 399/5/1 393/3/1 395/6/1
f 399/5/1 400/1/1 393/3/1
f 400/5/1 392/3/1 393/6/1
f 400/5/1 398/1/1 392/3/1
f 401/5/1 395/3/1 394/6/1
f 401/5/1 399/1/1 395/3/1
f 402/5/1 394/3/1 396/6/1
f 402/5/1 401/1/1 394/3/1
f 338/13/2 403/19/2 337/21/2
f 338/13/2 404/12/2 403/19/2
f 337/13/2 405/19/2 336/21/2
f 337/13/2 403/12/2 405/19/2
f 336/13/2 135/19/2 132/21/2
f 336/13/2 405/12/2 135/19/2
f 405/13/2 137/19/2 135/21/2
f 405/13/2 406/12/2 137/19/2
f 406/13/2 139/19/2 137/21/2
f 406/13/2 407/12/2 139/19/2
f 407/13/2 284/19/2 139/21/2
f 407/13/2 408/12/2 284/19/2
f 408/13/2 294/19/2 284/21/2
f 408/13/2 409/12/2 294/19/2
f 410/19/2 411/22/2 412/18/2
f 410/19/2 413/12/2 411/22/2
f 412/13/2 407/19/2 406/21/2
f 412/13/2 411/12/2 407/19/2
f 414/19/2 415/22/2 416/18/2
f 414/19/2 417/12/2 415/22/2
f 404/13/2 412/19/2 403/21/2
f 404/13/2 410/12/2 412/19/2
f 403/13/2 406/19/2 405/21/2
f 403/13/2 412/12/2 406/19/2
f 413/13/2 418/19/2 411/21/2
f 413/13/2 419/12/2 418/19/2
f 418/13/2 409/19/2 408/21/2
f 418/13/2 420/12/2 409/19/2
f 420/13/2 421/19/2 409/21/2
f 420/13/2 422/12/2 421/19/2
f 411/19/2 408/22/2 407/18/2
f 411/19/2 418/12/2 408/22/2
f 409/13/2 292/19/2 294/21/2
f 409/13/2 421/12/2 292/19/2
f 423/13/2 424/19/2 425/21/2
f 423/13/2 426/12/2 424/19/2
f 421/19/2 291/22/2 292/18/2
f 421/19/2 427/12/2 291/22/2
f 428/13/2 429/19/2 427/21/2
f 428/13/2 430/12/2 429/19/2
f 429/13/2 299/19/2 298/21/2
f 429/13/2 431/12/2 299/19/2
f 432/21/2 416/12/2 433/19/2
f 432/21/2 414/13/2 416/12/2
f 419/21/2 420/12/2 418/19/2
f 419/21/2 434/13/2 420/12/2
f 430/13/2 431/19/2 429/21/2
f 430/13/2 435/12/2 431/19/2
f 427/13/2 298/19/2 291/21/2
f 427/13/2 429/12/2 298/19/2
f 433/19/2 428/22/2 422/18/2
f 433/19/2 416/12/2 428/22/2
f 434/21/2 422/12/2 420/19/2
f 434/21/2 433/13/2 422/12/2
f 371/23/2 124/44/2 123/45/2
f 371/23/2 436/38/2 124/44/2
f 373/23/2 436/44/2 371/45/2
f 373/23/2 437/38/2 436/44/2
f 375/23/2 437/44/2 373/45/2
f 375/23/2 438/38/2 437/44/2
f 376/23/2 438/44/2 375/45/2
f 376/23/2 439/38/2 438/44/2
f 377/23/2 439/44/2 376/45/2
f 377/23/2 440/38/2 439/44/2
f 370/23/2 440/44/2 377/45/2
f 370/23/2 368/38/2 440/44/2
f 368/23/2 441/44/2 440/45/2
f 368/23/2 367/38/2 441/44/2
f 367/23/2 442/44/2 441/45/2
f 367/23/2 369/38/2 442/44/2
f 369/23/2 355/44/2 442/45/2
f 369/23/2 356/38/2 355/44/2
f 442/23/2 354/44/2 443/45/2
f 442/23/2 355/38/2 354/44/2
f 443/23/2 353/44/2 444/45/2
f 443/23/2 354/38/2 353/44/2
f 444/23/2 445/44/2 446/45/2
f 444/23/2 353/38/2 445/44/2
f 353/23/2 447/44/2 445/45/2
f 353/23/2 352/38/2 447/44/2
f 352/23/2 448/44/2 447/45/2
f 352/23/2 351/38/2 448/44/2
f 351/23/2 308/44/2 448/45/2
f 351/23/2 309/38/2 308/44/2
f 449/23/2 107/44/2 106/45/2
f 449/23/2 310/38/2 107/44/2
f 448/23/2 310/44/2 449/45/2
f 448/23/2 308/38/2 310/44/2
f 450/23/2 106/44/2 128/45/2
f 450/23/2 449/38/2 106/44/2
f 451/23/2 126/44/2 125/45/2
f 451/23/2 452/38/2 126/44/2
f 436/23/2 125/44/2 124/45/2
f 436/23/2 451/38/2 125/44/2
f 452/23/2 127/44/2 126/45/2
f 452/23/2 453/38/2 127/44/2
f 453/23/2 128/44/2 127/45/2
f 453/23/2 450/38/2 128/44/2
f 447/23/2 449/44/2 450/45/2
f 447/23/2 448/38/2 449/44/2
f 445/23/2 450/44/2 453/45/2
f 445/23/2 447/38/2 450/44/2
f 446/23/2 453/44/2 452/45/2
f 446/23/2 445/38/2 453/44/2
f 437/23/2 451/44/2 436/45/2
f 437/23/2 454/38/2 451/44/2
f 454/23/2 452/44/2 451/45/2
f 454/23/2 446/38/2 452/44/2
f 455/23/2 446/44/2 454/45/2
f 455/23/2 444/38/2 446/44/2
f 438/23/2 454/44/2 437/45/2
f 438/23/2 455/38/2 454/44/2
f 439/23/2 455/44/2 438/45/2
f 439/23/2 456/38/2 455/44/2
f 456/23/2 444/44/2 455/45/2
f 456/23/2 443/38/2 444/44/2
f 440/23/2 456/44/2 439/45/2
f 440/23/2 441/38/2 456/44/2
f 441/23/2 443/44/2 456/45/2
f 441/23/2 442/38/2 443/44/2
f 457/21/2 458/12/2 417/19/2
f 457/21/2 459/13/2 458/12/2
f 415/21/2 435/12/2 430/19/2
f 415/21/2 460/13/2 435/12/2
f 432/13/2 434/19/2 461/21/2
f 432/13/2 433/12/2 434/19/2
f 461/13/2 419/19/2 462/21/2
f 461/13/2 434/12/2 419/19/2
f 462/13/2 413/19/2 424/21/2
f 462/13/2 419/12/2 413/19/2
f 424/13/2 410/19/2 425/21/2
f 424/13/2 413/12/2 410/19/2
f 425/13/2 404/19/2 463/21/2
f 425/13/2 410/12/2 404/19/2
f 463/13/2 338/19/2 464/21/2
f 463/13/2 404/12/2 338/19/2
f 416/19/2 430/22/2 428/18/2
f 416/19/2 415/12/2 430/22/2
f 465/13/2 338/19/2 335/21/2
f 465/13/2 464/12/2 338/19/2
f 466/13/2 335/19/2 334/21/2
f 466/13/2 465/12/2 335/19/2
f 467/13/2 334/19/2 333/21/2
f 467/13/2 466/12/2 334/19/2
f 468/13/2 333/19/2 332/21/2
f 468/13/2 467/12/2 333/19/2
f 469/13/2 467/19/2 468/21/2
f 469/13/2 470/12/2 467/19/2
f 470/13/2 466/19/2 467/21/2
f 470/13/2 471/12/2 466/19/2
f 472/13/2 464/19/2 465/21/2
f 472/13/2 473/12/2 464/19/2
f 473/13/2 463/19/2 464/21/2
f 473/13/2 474/12/2 463/19/2
f 471/13/2 465/19/2 466/21/2
f 471/13/2 472/12/2 465/19/2
f 474/13/2 425/19/2 463/21/2
f 474/13/2 423/12/2 425/19/2
f 426/13/2 462/19/2 424/21/2
f 426/13/2 475/12/2 462/19/2
f 475/13/2 461/19/2 462/21/2
f 475/13/2 476/12/2 461/19/2
f 476/13/2 432/19/2 461/21/2
f 476/13/2 477/12/2 432/19/2
f 422/19/2 427/22/2 421/18/2
f 422/19/2 428/12/2 427/22/2
f 477/13/2 414/19/2 432/21/2
f 477/13/2 478/12/2 414/19/2
f 478/21/2 417/12/2 414/19/2
f 478/21/2 457/13/2 417/12/2
f 417/19/2 460/22/2 415/18/2
f 417/19/2 458/12/2 460/22/2
f 479/18/2 459/12/2 457/22/2
f 479/18/2 480/19/2 459/12/2
f 481/18/2 457/12/2 478/22/2
f 481/18/2 479/19/2 457/12/2
f 482/18/2 478/12/2 477/22/2
f 482/18/2 481/19/2 478/12/2
f 483/18/2 477/12/2 476/22/2
f 483/18/2 482/19/2 477/12/2
f 484/18/2 476/12/2 475/22/2
f 484/18/2 483/19/2 476/12/2
f 485/18/2 475/12/2 426/22/2
f 485/18/2 484/19/2 475/12/2
f 486/18/2 426/12/2 423/22/2
f 486/18/2 485/19/2 426/12/2
f 487/18/2 423/12/2 474/22/2
f 487/18/2 486/19/2 423/12/2
f 488/18/2 474/12/2 473/22/2
f 488/18/2 487/19/2 474/12/2
f 489/18/2 473/12/2 472/22/2
f 489/18/2 488/19/2 473/12/2
f 490/18/2 472/12/2 471/22/2
f 490/18/2 489/19/2 472/12/2
f 491/18/2 471/12/2 470/22/2
f 491/18/2 490/19/2 471/12/2
f 492/18/2 470/12/2 469/22/2
f 492/18/2 491/19/2 470/12/2
f 493/3/1 399/5/1 401/1/1
f 493/3/1 494/6/1 399/5/1
f 494/3/1 400/5/1 399/1/1
f 494/3/1 495/6/1 400/5/1
f 496/3/1 397/5/1 398/1/1
f 496/3/1 497/6/1 397/5/1
f 498/3/1 499/5/1 497/1/1
f 498/3/1 500/6/1 499/5/1
f 500/3/1 501/5/1 499/1/1
f 500/3/1 502/6/1 501/5/1
f 502/3/1 503/5/1 501/1/1
f 502/3/1 504/6/1 503/5/1
f 504/3/1 505/5/1 503/1/1
f 504/3/1 506/6/1 505/5/1
f 506/3/1 507/5/1 505/1/1
f 506/3/1 508/6/1 507/5/1
f 508/3/1 509/5/1 507/1/1
f 508/3/1 510/6/1 509/5/1
f 511/3/1 183/5/1 178/1/1
f 511/3/1 512/6/1 183/5/1
f 513/3/1 512/5/1 511/1/1
f 513/3/1 514/6/1 512/5/1
f 510/3/1 511/5/1 509/1/1
f 510/3/1 513/6/1 511/5/1
f 509/3/1 178/5/1 177/1/1
f 509/3/1 511/6/1 178/5/1
f 507/3/1 177/5/1 179/1/1
f 507/3/1 509/6/1 177/5/1
f 505/3/1 179/5/1 180/1/1
f 505/3/1 507/6/1 179/5/1
f 503/3/1 180/5/1 182/1/1
f 503/3/1 505/6/1 180/5/1
f 501/3/1 182/5/1 181/1/1
f 501/3/1 503/6/1 182/5/1
f 499/3/1 181/5/1 184/1/1
f 499/3/1 501/6/1 181/5/1
f 497/3/1 184/5/1 397/1/1
f 497/3/1 499/6/1 184/5/1
f 515/3/1 497/5/1 496/1/1
f 515/3/1 498/6/1 497/5/1
f 516/3/1 496/5/1 495/1/1
f 516/3/1 515/6/1 496/5/1
f 495/3/1 398/5/1 400/1/1
f 495/3/1 496/6/1 398/5/1
f 517/3/1 401/5/1 402/1/1
f 517/3/1 493/6/1 401/5/1
f 518/3/1 493/5/1 517/1/1
f 518/3/1 519/6/1 493/5/1
f 519/3/1 494/5/1 493/1/1
f 519/3/1 520/6/1 494/5/1
f 520/3/1 495/5/1 494/1/1
f 520/3/1 516/6/1 495/5/1
f 521/19/2 519/13/2 518/12/2
f 521/19/2 522/21/2 519/13/2
f 522/19/2 520/13/2 519/12/2
f 522/19/2 523/21/2 520/13/2
f 523/19/2 516/13/2 520/12/2
f 523/19/2 524/21/2 516/13/2
f 524/19/2 515/13/2 516/12/2
f 524/19/2 525/21/2 515/13/2
f 525/19/2 498/13/2 515/12/2
f 525/19/2 526/21/2 498/13/2
f 526/19/2 500/13/2 498/12/2
f 526/19/2 527/21/2 500/13/2
f 527/19/2 502/13/2 500/12/2
f 527/19/2 528/21/2 502/13/2
f 528/19/2 504/13/2 502/12/2
f 528/19/2 529/21/2 504/13/2
f 529/19/2 506/13/2 504/12/2
f 529/19/2 530/21/2 506/13/2
f 530/19/2 508/13/2 506/12/2
f 530/19/2 531/21/2 508/13/2
f 531/19/2 510/13/2 508/12/2
f 531/19/2 532/21/2 510/13/2
f 532/19/2 513/13/2 510/12/2
f 532/19/2 533/21/2 513/13/2
f 533/19/2 514/13/2 513/12/2
f 533/19/2 534/21/2 514/13/2
f 535/19/2 534/13/2 533/12/2
f 535/19/2 536/21/2 534/13/2
f 537/22/2 535/19/2 538/12/2
f 537/22/2 539/18/2 535/19/2
f 540/22/2 541/19/2 542/12/2
f 540/22/2 543/18/2 541/19/2
f 542/19/2 531/13/2 530/12/2
f 542/19/2 541/21/2 531/13/2
f 544/19/2 530/13/2 529/12/2
f 544/19/2 542/21/2 530/13/2
f 545/19/2 529/13/2 528/12/2
f 545/19/2 544/21/2 529/13/2
f 546/19/2 528/13/2 527/12/2
f 546/19/2 545/21/2 528/13/2
f 547/19/2 527/13/2 526/12/2
f 547/19/2 546/21/2 527/13/2
f 548/19/2 526/13/2 525/12/2
f 548/19/2 547/21/2 526/13/2
f 549/19/2 525/13/2 524/12/2
f 549/19/2 548/21/2 525/13/2
f 550/19/2 524/13/2 523/12/2
f 550/19/2 549/21/2 524/13/2
f 551/19/2 523/13/2 522/12/2
f 551/19/2 550/21/2 523/13/2
f 552/19/2 522/13/2 521/12/2
f 552/19/2 551/21/2 522/13/2
f 553/19/2 551/13/2 552/12/2
f 553/19/2 554/21/2 551/13/2
f 554/19/2 550/13/2 551/12/2
f 554/19/2 555/21/2 550/13/2
f 555/19/2 549/13/2 550/12/2
f 555/19/2 556/21/2 549/13/2
f 556/19/2 548/13/2 549/12/2
f 556/19/2 557/21/2 548/13/2
f 558/17/2 545/21/2 546/19/2
f 558/17/2 559/16/2 545/21/2
f 560/17/2 561/21/2 562/19/2
f 560/17/2 563/16/2 561/21/2
f 564/12/2 542/21/2 544/13/2
f 564/12/2 540/19/2 542/21/2
f 541/12/2 532/21/2 531/13/2
f 541/12/2 538/19/2 532/21/2
f 565/22/2 543/19/2 540/12/2
f 565/22/2 566/18/2 543/19/2
f 543/22/2 538/19/2 541/12/2
f 543/22/2 537/18/2 538/19/2
f 567/4/2 568/3/2 569/1/2
f 567/4/2 570/2/2 568/3/2
f 539/19/2 536/13/2 535/12/2
f 539/19/2 571/21/2 536/13/2
f 572/19/2 546/13/2 547/12/2
f 572/19/2 558/21/2 546/13/2
f 573/19/2 556/13/2 555/12/2
f 573/19/2 574/21/2 556/13/2
f 575/19/2 555/13/2 554/12/2
f 575/19/2 573/21/2 555/13/2
f 576/19/2 554/13/2 553/12/2
f 576/19/2 575/21/2 554/13/2
f 557/12/2 547/21/2 548/13/2
f 557/12/2 572/19/2 547/21/2
f 574/4/2 577/3/2 578/1/2
f 574/4/2 579/2/2 577/3/2
f 562/12/2 558/21/2 572/13/2
f 562/12/2 561/19/2 558/21/2
f 558/4/2 580/3/2 559/1/2
f 558/4/2 561/2/2 580/3/2
f 581/4/2 570/3/2 567/1/2
f 581/4/2 582/2/2 570/3/2
f 559/17/2 544/21/2 545/19/2
f 559/17/2 564/16/2 544/21/2
f 566/19/2 537/13/2 543/12/2
f 566/19/2 583/21/2 537/13/2
f 584/17/2 540/21/2 564/19/2
f 584/17/2 565/16/2 540/21/2
f 585/19/2 571/13/2 539/12/2
f 585/19/2 586/21/2 571/13/2
f 574/17/2 557/21/2 556/19/2
f 574/17/2 578/16/2 557/21/2
f 587/17/2 574/21/2 573/19/2
f 587/17/2 579/16/2 574/21/2
f 588/17/2 575/21/2 576/19/2
f 588/17/2 589/16/2 575/21/2
f 590/4/2 591/3/2 592/1/2
f 590/4/2 593/2/2 591/3/2
f 594/22/2 585/19/2 583/12/2
f 594/22/2 595/18/2 585/19/2
f 596/4/2 590/3/2 597/1/2
f 596/4/2 598/2/2 590/3/2
f 578/17/2 572/21/2 557/19/2
f 578/17/2 562/16/2 572/21/2
f 560/4/2 599/3/2 563/1/2
f 560/4/2 600/2/2 599/3/2
f 538/22/2 533/19/2 532/12/2
f 538/22/2 535/18/2 533/19/2
f 580/4/2 567/3/2 584/1/2
f 580/4/2 581/2/2 567/3/2
f 569/4/2 601/3/2 602/1/2
f 569/4/2 568/2/2 601/3/2
f 602/19/2 583/13/2 566/12/2
f 602/19/2 594/21/2 583/13/2
f 603/4/2 604/3/2 605/1/2
f 603/4/2 606/2/2 604/3/2
f 583/22/2 539/19/2 537/12/2
f 583/22/2 585/18/2 539/19/2
f 607/19/2 608/13/2 595/12/2
f 607/19/2 609/21/2 608/13/2
f 601/17/2 594/21/2 602/19/2
f 601/17/2 610/16/2 594/21/2
f 569/17/2 566/21/2 565/19/2
f 569/17/2 602/16/2 566/21/2
f 599/4/2 611/3/2 582/1/2
f 599/4/2 597/2/2 611/3/2
f 612/4/2 598/3/2 596/1/2
f 612/4/2 613/2/2 598/3/2
f 563/4/2 582/3/2 581/1/2
f 563/4/2 599/2/2 582/3/2
f 577/4/2 600/3/2 560/1/2
f 577/4/2 614/2/2 600/3/2
f 578/4/2 560/3/2 562/1/2
f 578/4/2 577/2/2 560/3/2
f 587/4/2 615/3/2 579/1/2
f 587/4/2 616/2/2 615/3/2
f 615/4/2 612/3/2 614/1/2
f 615/4/2 617/2/2 612/3/2
f 579/4/2 614/3/2 577/1/2
f 579/4/2 615/2/2 614/3/2
f 588/4/2 618/3/2 589/1/2
f 588/4/2 619/2/2 618/3/2
f 619/4/2 620/3/2 618/1/2
f 619/4/2 621/2/2 620/3/2
f 618/4/2 622/3/2 616/1/2
f 618/4/2 620/2/2 622/3/2
f 622/4/2 623/3/2 617/1/2
f 622/4/2 624/2/2 623/3/2
f 589/17/2 573/21/2 575/19/2
f 589/17/2 587/16/2 573/21/2
f 600/4/2 597/3/2 599/1/2
f 600/4/2 596/2/2 597/3/2
f 597/4/2 592/3/2 611/1/2
f 597/4/2 590/2/2 592/3/2
f 614/4/2 596/3/2 600/1/2
f 614/4/2 612/2/2 596/3/2
f 625/4/2 626/3/2 627/1/2
f 625/4/2 628/2/2 626/3/2
f 584/4/2 569/3/2 565/1/2
f 584/4/2 567/2/2 569/3/2
f 559/4/2 584/3/2 564/1/2
f 559/4/2 580/2/2 584/3/2
f 629/4/2 630/3/2 631/1/2
f 629/4/2 632/2/2 630/3/2
f 601/4/2 633/3/2 610/1/2
f 601/4/2 634/2/2 633/3/2
f 595/22/2 586/19/2 585/12/2
f 595/22/2 608/18/2 586/19/2
f 610/17/2 595/21/2 594/19/2
f 610/17/2 607/16/2 595/21/2
f 634/4/2 631/3/2 633/1/2
f 634/4/2 629/2/2 631/3/2
f 610/4/2 603/3/2 607/1/2
f 610/4/2 633/2/2 603/3/2
f 570/4/2 627/3/2 568/1/2
f 570/4/2 625/2/2 627/3/2
f 568/4/2 634/3/2 601/1/2
f 568/4/2 627/2/2 634/3/2
f 611/4/2 628/3/2 625/1/2
f 611/4/2 592/2/2 628/3/2
f 561/4/2 581/3/2 580/1/2
f 561/4/2 563/2/2 581/3/2
f 582/4/2 625/3/2 570/1/2
f 582/4/2 611/2/2 625/3/2
f 592/4/2 635/3/2 628/1/2
f 592/4/2 591/2/2 635/3/2
f 628/4/2 636/3/2 626/1/2
f 628/4/2 635/2/2 636/3/2
f 589/4/2 616/3/2 587/1/2
f 589/4/2 618/2/2 616/3/2
f 617/4/2 613/3/2 612/1/2
f 617/4/2 623/2/2 613/3/2
f 616/4/2 617/3/2 615/1/2
f 616/4/2 622/2/2 617/3/2
f 620/4/2 624/3/2 622/1/2
f 620/4/2 637/2/2 624/3/2
f 621/4/2 637/3/2 620/1/2
f 621/4/2 638/2/2 637/3/2
f 638/4/2 639/3/2 637/1/2
f 638/4/2 640/2/2 639/3/2
f 637/4/2 641/3/2 624/1/2
f 637/4/2 639/2/2 641/3/2
f 624/4/2 642/3/2 623/1/2
f 624/4/2 641/2/2 642/3/2
f 623/4/2 643/3/2 613/1/2
f 623/4/2 642/2/2 643/3/2
f 613/4/2 644/3/2 598/1/2
f 613/4/2 643/2/2 644/3/2
f 598/4/2 593/3/2 590/1/2
f 598/4/2 644/2/2 593/3/2
f 627/4/2 629/3/2 634/1/2
f 627/4/2 626/2/2 629/3/2
f 626/4/2 632/3/2 629/1/2
f 626/4/2 636/2/2 632/3/2
f 606/4/2 645/3/2 604/1/2
f 606/4/2 646/2/2 645/3/2
f 631/4/2 646/3/2 606/1/2
f 631/4/2 630/2/2 646/3/2
f 633/4/2 606/3/2 603/1/2
f 633/4/2 631/2/2 606/3/2
f 603/17/2 609/21/2 607/19/2
f 603/17/2 605/16/2 609/21/2
f 647/19/2 175/13/2 174/12/2
f 647/19/2 648/21/2 175/13/2
f 648/19/2 176/13/2 175/12/2
f 648/19/2 649/21/2 176/13/2
f 650/19/2 174/13/2 173/12/2
f 650/19/2 647/21/2 174/13/2
f 651/19/2 173/13/2 172/12/2
f 651/19/2 650/21/2 173/13/2
f 652/19/1 650/13/1 651/12/1
f 652/19/1 653/21/1 650/13/1
f 653/19/1 647/13/1 650/12/1
f 653/19/1 654/21/1 647/13/1
f 654/19/1 648/13/1 647/12/1
f 654/19/1 655/21/1 648/13/1
f 655/19/1 649/13/1 648/12/1
f 655/19/1 656/21/1 649/13/1
f 180/19/3 651/13/3 172/12/3
f 180/19/3 652/21/3 651/13/3
f 657/19/2 653/13/2 652/12/2
f 657/19/2 658/21/2 653/13/2
f 653/19/2 177/13/2 179/12/2
f 653/19/2 654/21/2 177/13/2
f 654/19/2 178/13/2 177/12/2
f 654/19/2 655/21/2 178/13/2
f 655/19/2 183/13/2 178/12/2
f 655/19/2 656/21/2 183/13/2
f 658/19/2 654/13/2 653/12/2
f 658/19/2 659/21/2 654/13/2
f 659/19/2 655/13/2 654/12/2
f 659/19/2 660/21/2 655/13/2
f 660/19/2 656/13/2 655/12/2
f 660/19/2 661/21/2 656/13/2
f 662/19/1 658/13/1 657/12/1
f 662/19/1 663/21/1 658/13/1
f 663/19/1 659/13/1 658/12/1
f 663/19/1 664/21/1 659/13/1
f 664/19/1 660/13/1 659/12/1
f 664/19/1 665/21/1 660/13/1
f 665/19/1 661/13/1 660/12/1
f 665/19/1 666/21/1 661/13/1
f 667/19/2 666/13/2 665/12/2
f 667/19/2 668/21/2 666/13/2
f 669/19/2 665/13/2 664/12/2
f 669/19/2 667/21/2 665/13/2
f 670/19/2 664/13/2 663/12/2
f 670/19/2 669/21/2 664/13/2
f 671/19/2 663/13/2 662/12/2
f 671/19/2 670/21/2 663/13/2
f 540/19/1 670/13/1 671/12/1
f 540/19/1 543/21/1 670/13/1
f 543/19/1 669/13/1 670/12/1
f 543/19/1 537/21/1 669/13/1
f 537/19/1 667/13/1 669/12/1
f 537/19/1 539/21/1 667/13/1
f 539/19/1 668/13/1 667/12/1
f 539/19/1 571/21/1 668/13/1
f 505/3/3 652/5/3 180/1/3
f 505/3/3 672/6/3 652/5/3
f 672/3/3 657/5/3 652/1/3
f 672/3/3 662/6/3 657/5/3
f 542/3/3 671/5/3 662/1/3
f 542/3/3 540/6/3 671/5/3
f 530/3/3 662/5/3 672/1/3
f 530/3/3 542/6/3 662/5/3
f 506/3/3 672/5/3 505/1/3
f 506/3/3 530/6/3 672/5/3
f 571/3/4 666/5/4 668/1/4
f 571/3/4 536/6/4 666/5/4
f 536/3/4 673/5/4 666/1/4
f 536/3/4 534/6/4 673/5/4
f 534/3/4 512/5/4 673/1/4
f 534/3/4 514/6/4 512/5/4
f 666/3/4 656/5/4 661/1/4
f 666/3/4 673/6/4 656/5/4
f 673/3/4 183/5/4 656/1/4
f 673/3/4 512/6/4 183/5/4
f 656/3/4 176/5/4 649/1/4
f 656/3/4 183/6/4 176/5/4
