mtllib forest.mtl
o Default
v 0 0 -3
v 1 0 -4
v 0 0 -4
v 1 0 -3
v 0 0 -2
v 1 0 -2
v 0 0 -1
v 1 0 -1
v 0 0 0
v 1 0 0
v 2 0 -1
v 2 0 0
v 3 0 -1
v 3 0 0
v 4 0 -1
v 4 0 0
v 4 0 -2
v 3 0 -2
v 2 0 -2
v 2 0 -5
v 3 0 -4
v 3 0 -5
v 2 0 -4
v 3 0 -3
v 4 0 -4
v 4 0 -3
v 2 0 -3
v 1 0 -5
v 4 0 -5
v 4 0 -6
v 5 0 -5
v 5 0 -6
v 5 0 -4
v 5 0 -3
v 5 0 -2
v 5 0 -1
v 5 0 0
v 1 -1 -5
v 0 0 -5
v 0 -1 -5
v 4 -1 -5
v 3 -1 -5
v 5 -1 -5
v 2 -1 -5
v 5 -2 -5
v 4 -2 -5
v 3 -2 -5
v 2 -2 -5
v 1 -2 -5
v 0 -2 -5
v 2 -2 -3
v 2 -1 -4
v 2 -1 -3
v 2 -2 -4
v 5 -1 -4
v 5 -1 -3
v 5 -1 0
v 5 -1 -1
v 5 -1 -2
v 5 -2 -4
v 5 -2 -3
v 5 -2 -2
v 5 -2 0
v 5 -2 -1
v 0 -1 -4
v 0 -1 -3
v 0 -2 -4
v 0 -2 -3
v 0 -1 -2
v 0 -2 -2
v 0 -1 -1
v 0 -2 -1
v 0 -1 0
v 0 -2 0
v 1 -1 0
v 1 -2 0
v 2 -1 0
v 2 -2 0
v 3 -1 0
v 3 -2 0
v 4 -1 0
v 4 -2 0
v 6 0 -1
v 6 0 0
v 6 0 -2
v 6 0 -4
v 6 0 -3
v 7 0 -4
v 7 0 -3
v 6 0 -5
v 8 0 -5
v 7 0 -5
v 8 0 -4
v 8 0 -3
v 7 0 -2
v 7 0 -1
v 8 0 -2
v 8 0 -1
v 7 0 0
v 8 0 0
v 9 0 -1
v 9 0 0
v 9 0 -3
v 9 0 -2
v 9 0 -5
v 9 0 -4
v 10 0 -2
v 10 0 -1
v 10 0 -3
v 10 0 -5
v 10 0 -4
v 10 0 0
v 10 1 -4
v 10 1 -5
v 10 1 -3
v 10 1 -1
v 10 1 -2
v 10 1 0
v 10 2 -3
v 10 2 -4
v 10 2 -1
v 10 2 -2
v 10 2 -5
v 10 2 0
v 10 3 0
v 10 3 -1
v 10 3 -2
v 10 3 -3
v 10 3 -4
v 10 3 -5
v 11 3 -4
v 11 3 -3
v 11 3 -2
v 11 3 -1
v 11 3 0
v 11 3 -5
v 12 3 -5
v 12 3 -4
v 12 3 -3
v 12 3 -2
v 12 3 -1
v 12 3 0
v 13 3 -4
v 13 3 -3
v 13 3 -5
v 13 3 -2
v 13 3 -1
v 13 3 0
v 14 3 -2
v 14 3 -1
v 14 3 -3
v 14 3 -4
v 14 3 -5
v 14 3 0
v 15 3 -1
v 15 3 0
v 15 3 -2
v 15 3 -3
v 15 3 -4
v 15 3 -5
v 4 0 -7
v 5 0 -7
v 4 0 -8
v 5 0 -8
v 4 0 -9
v 5 0 -9
v 4 0 -10
v 5 0 -10
v 7 0 -11.5
v 8 0 -10.5
v 8 0 -11.5
v 7 0 -10.5
v 3 -4.5 1
v 2 -3.5 1
v 3 -3.5 1
v 2 -4.5 1
v 3 -5.5 1
v 2 -5.5 1
v 1 -4.5 1
v 1 -5.5 1
v 13 -7 -5
v 13 -6 -4
v 13 -6 -5
v 13 -7 -4
v 0 -0.5 -6
v 1 -0.5 -7
v 0 -0.5 -7
v 1 -0.5 -6
v 0 -0.5 -5
v 1 -0.5 -5
v 2 -0.5 -7
v 3 -0.5 -8
v 2 -0.5 -8
v 3 -0.5 -7
v 3 -0.5 -9
v 4 -0.5 -10
v 3 -0.5 -10
v 4 -0.5 -9
v 4 -0.5 -8
v 4 -0.5 -7
v 2 -0.5 -9
v 2 -0.5 -10
v 2 -0.5 -6
v 2 -0.5 -5
v 3 -0.5 -6
v 3 -0.5 -5
v 4 -0.5 -6
v 4 -0.5 -5
v 1 -0.5 -8
v 1 -0.5 -9
v 1 -0.5 -10
v 0 -0.5 -9
v 0 -0.5 -10
v 0 -0.5 -8
v 15 -17.5 5
v 15 -16.5 6
v 15 -16.5 5
v 15 -17.5 6
v 4 -1 -8
v 4 -1 -7
v 4 -1 -6
v 4 -1 -9
v 4 -1 -10
v 4 -1 -4
v 4 -2 -4
v 4 -1 -3
v 4 -2 -3
v 4.5 -4 9
v 3.5 -3 9
v 4.5 -3 9
v 3.5 -4 9
v 4.5 -3.5 9
v 3.5 -2.5 9
v 4.5 -2.5 9
v 3.5 -3.5 9
v 3.5 -3.5 8.5
v 2.5 -2.5 8.5
v 3.5 -2.5 8.5
v 2.5 -3.5 8.5
v 7 0 -4.5
v 8 0 -5.5
v 7 0 -5.5
v 8 0 -4.5
v 8 0 -6.5
v 7 0 -6.5
v 8 0 -7.5
v 7 0 -7.5
v 8 0 -8.5
v 7 0 -8.5
v 8 0 -9.5
v 7 0 -9.5
v 6 0 -4.5
v 6 0 -5.5
v 6 0 -6.5
v 6 0 -7.5
v 9 0 -7.5
v 10 0 -8.5
v 9 0 -8.5
v 10 0 -7.5
v 6 0 -8.5
v 6 0 -9.5
v 5 0 -9.5
v 6 0 -10.5
v 5 0 -10.5
v 5 0 -8.5
v 5 0 -7.5
v 5 0 -6.5
v 5 0 -5.5
v 5 0 -4.5
v 9 0 -4.5
v 10 0 -5.5
v 9 0 -5.5
v 10 0 -4.5
v 10 0 -6.5
v 9 0 -6.5
v 10 0 -9.5
v 9 0 -9.5
v 9 0 -10.5
v 10 0 -10.5
v 13 3 -11
v 14 3 -10
v 14 3 -11
v 13 3 -10
v 10 2 -6
v 10 3 -6
v 10 2 -7
v 10 3 -7
v 10 2 -8
v 10 3 -8
v 10 2 -9
v 10 3 -9
v 10 2 -10
v 10 3 -10
v 10 2 -11
v 10 3 -11
v 10 1 -11
v 10 1 -10
v 10 1 -9
v 10 1 -8
v 10 1 -7
v 10 1 -6
v 10 0 -6
v 10 0 -7
v 10 0 -8
v 10 0 -9
v 10 0 -10
v 10 0 -11
v 11 3 -6
v 11 3 -7
v 11 3 -8
v 11 3 -9
v 11 3 -10
v 11 3 -11
v 15 3 -6
v 14 3 -6
v 14 3 -7
v 13 3 -6
v 13 3 -7
v 13 3 -9
v 12 3 -8
v 13 3 -8
v 12 3 -9
v 12 3 -10
v 12 3 -11
v 14 3 -9
v 14 3 -8
v 15 3 -9
v 15 3 -8
v 15 3 -7
v 15 3 -10
v 15 3 -11
v 12 3 -6
v 12 3 -7
v 10 0 -11.5
v 9 0 -11.5
v 6 0 -11.5
v 5 0 -11.5
v 4 0 -11
v 5 0 -11
v 4 -1 -11
v 3 -0.5 -11
v 4 -0.5 -11
v 2 -0.5 -11
v 1 -0.5 -11
v 0 -0.5 -11
vt 0 0.5
vt 0.125 0.625
vt 0 0.625
vt 0.125 0.5
vt 0.25 0.625
vt 0.25 0.5
vt 0 0.75
vt 0.125 0.75
vt 0.125 0.875
vt 0 1
vt 0.125 1
vt 0 0.875
vt 0.25 0.875
vt 0.25 1
vt 0 0.375
vt 0.125 0.375
vt 0.25 0.25
vt 0.375 0.375
vt 0.25 0.375
vt 0.375 0.25
vt 0.125 0.25
vt 0 0.25
vt 0.25 0.75
vn 0 1 0
vn 0 0 -1
vn 1 0 0
vn -1 0 0
vn 0 0 1
g Scene
usemtl bigfoot_trees
f 1/1/1 2/2/1 3/3/1
f 1/1/1 4/4/1 2/2/1
f 5/1/1 4/2/1 1/3/1
f 5/1/1 6/4/1 4/2/1
f 7/1/1 6/2/1 5/3/1
f 7/1/1 8/4/1 6/2/1
f 9/1/1 8/2/1 7/3/1
f 9/1/1 10/4/1 8/2/1
f 10/1/1 11/2/1 8/3/1
f 10/1/1 12/4/1 11/2/1
f 12/1/1 13/2/1 11/3/1
f 12/1/1 14/4/1 13/2/1
f 14/1/1 15/2/1 13/3/1
f 14/1/1 16/4/1 15/2/1
f 13/1/1 17/2/1 18/3/1
f 13/1/1 15/4/1 17/2/1
f 11/4/1 18/5/1 19/2/1
f 11/4/1 13/6/1 18/5/1
f 20/7/1 21/2/1 22/8/1
f 20/7/1 23/3/1 21/2/1
f 24/4/1 25/5/1 21/2/1
f 24/4/1 26/6/1 25/5/1
f 4/1/1 23/2/1 2/3/1
f 4/1/1 27/4/1 23/2/1
f 19/4/1 24/5/1 27/2/1
f 19/4/1 18/6/1 24/5/1
f 6/4/1 27/5/1 4/2/1
f 6/4/1 19/6/1 27/5/1
f 27/4/1 21/5/1 23/2/1
f 27/4/1 24/6/1 21/5/1
f 8/4/1 19/5/1 6/2/1
f 8/4/1 11/6/1 19/5/1
f 28/7/1 23/2/1 20/8/1
f 28/7/1 2/3/1 23/2/1
f 22/7/1 25/2/1 29/8/1
f 22/7/1 21/3/1 25/2/1
f 30/8/1 31/3/1 32/2/1
f 30/8/1 29/7/1 31/3/1
f 25/1/1 31/2/1 29/3/1
f 25/1/1 33/4/1 31/2/1
f 26/1/1 33/2/1 25/3/1
f 26/1/1 34/4/1 33/2/1
f 17/1/1 34/2/1 26/3/1
f 17/1/1 35/4/1 34/2/1
f 15/1/1 35/2/1 17/3/1
f 15/1/1 36/4/1 35/2/1
f 18/4/1 26/5/1 24/2/1
f 18/4/1 17/6/1 26/5/1
f 16/1/1 36/2/1 15/3/1
f 16/1/1 37/4/1 36/2/1
f 38/9/2 39/10/2 28/11/2
f 38/9/2 40/12/2 39/10/2
f 41/9/2 22/10/2 29/11/2
f 41/9/2 42/12/2 22/10/2
f 43/9/2 29/10/2 31/11/2
f 43/9/2 41/12/2 29/10/2
f 42/13/2 20/11/2 22/14/2
f 42/13/2 44/9/2 20/11/2
f 44/13/2 28/11/2 20/14/2
f 44/13/2 38/9/2 28/11/2
f 45/12/2 41/11/2 43/10/2
f 45/12/2 46/9/2 41/11/2
f 46/12/2 42/11/2 41/10/2
f 46/12/2 47/9/2 42/11/2
f 47/12/2 44/11/2 42/10/2
f 47/12/2 48/9/2 44/11/2
f 48/12/2 38/11/2 44/10/2
f 48/12/2 49/9/2 38/11/2
f 49/12/2 40/11/2 38/10/2
f 49/12/2 50/9/2 40/11/2
f 51/12/3 52/11/3 53/10/3
f 51/12/3 54/9/3 52/11/3
f 55/12/3 31/11/3 33/10/3
f 55/12/3 43/9/3 31/11/3
f 56/12/3 33/11/3 34/10/3
f 56/12/3 55/9/3 33/11/3
f 57/12/3 36/11/3 37/10/3
f 57/12/3 58/9/3 36/11/3
f 58/12/3 35/11/3 36/10/3
f 58/12/3 59/9/3 35/11/3
f 59/12/3 34/11/3 35/10/3
f 59/12/3 56/9/3 34/11/3
f 60/12/3 43/11/3 55/10/3
f 60/12/3 45/9/3 43/11/3
f 61/12/3 55/11/3 56/10/3
f 61/12/3 60/9/3 55/11/3
f 62/12/3 56/11/3 59/10/3
f 62/12/3 61/9/3 56/11/3
f 63/12/3 58/11/3 57/10/3
f 63/12/3 64/9/3 58/11/3
f 64/12/3 59/11/3 58/10/3
f 64/12/3 62/9/3 59/11/3
f 40/12/4 3/11/4 39/10/4
f 40/12/4 65/9/4 3/11/4
f 65/12/4 1/11/4 3/10/4
f 65/12/4 66/9/4 1/11/4
f 67/12/4 66/11/4 65/10/4
f 67/12/4 68/9/4 66/11/4
f 50/12/4 65/11/4 40/10/4
f 50/12/4 67/9/4 65/11/4
f 66/12/4 5/11/4 1/10/4
f 66/12/4 69/9/4 5/11/4
f 68/12/4 69/11/4 66/10/4
f 68/12/4 70/9/4 69/11/4
f 70/12/4 71/11/4 69/10/4
f 70/12/4 72/9/4 71/11/4
f 69/12/4 7/11/4 5/10/4
f 69/12/4 71/9/4 7/11/4
f 71/12/4 9/11/4 7/10/4
f 71/12/4 73/9/4 9/11/4
f 72/12/4 73/11/4 71/10/4
f 72/12/4 74/9/4 73/11/4
f 74/12/5 75/11/5 73/10/5
f 74/12/5 76/9/5 75/11/5
f 73/12/5 10/11/5 9/10/5
f 73/12/5 75/9/5 10/11/5
f 75/12/5 12/11/5 10/10/5
f 75/12/5 77/9/5 12/11/5
f 76/12/5 77/11/5 75/10/5
f 76/12/5 78/9/5 77/11/5
f 78/12/5 79/11/5 77/10/5
f 78/12/5 80/9/5 79/11/5
f 77/12/5 14/11/5 12/10/5
f 77/12/5 79/9/5 14/11/5
f 79/12/5 16/11/5 14/10/5
f 79/12/5 81/9/5 16/11/5
f 80/12/5 81/11/5 79/10/5
f 80/12/5 82/9/5 81/11/5
f 82/12/5 57/11/5 81/10/5
f 82/12/5 63/9/5 57/11/5
f 81/12/5 37/11/5 16/10/5
f 81/12/5 57/9/5 37/11/5
f 37/15/1 83/4/1 36/1/1
f 37/15/1 84/16/1 83/4/1
f 36/15/1 85/4/1 35/1/1
f 36/15/1 83/16/1 85/4/1
f 34/17/1 86/18/1 33/19/1
f 34/17/1 87/20/1 86/18/1
f 87/17/1 88/18/1 86/19/1
f 87/17/1 89/20/1 88/18/1
f 33/15/1 90/4/1 31/1/1
f 33/15/1 86/16/1 90/4/1
f 88/16/1 91/6/1 92/4/1
f 88/16/1 93/19/1 91/6/1
f 89/16/1 93/6/1 88/4/1
f 89/16/1 94/19/1 93/6/1
f 83/17/1 95/18/1 85/19/1
f 83/17/1 96/20/1 95/18/1
f 95/21/1 94/19/1 89/16/1
f 95/21/1 97/17/1 94/19/1
f 96/16/1 97/6/1 95/4/1
f 96/16/1 98/19/1 97/6/1
f 99/21/1 98/19/1 96/16/1
f 99/21/1 100/17/1 98/19/1
f 100/17/1 101/18/1 98/19/1
f 100/17/1 102/20/1 101/18/1
f 97/17/1 103/18/1 94/19/1
f 97/17/1 104/20/1 103/18/1
f 35/17/1 87/18/1 34/19/1
f 35/17/1 85/20/1 87/18/1
f 84/22/1 96/16/1 83/15/1
f 84/22/1 99/21/1 96/16/1
f 93/17/1 105/18/1 91/19/1
f 93/17/1 106/20/1 105/18/1
f 101/17/1 107/18/1 104/19/1
f 101/17/1 108/20/1 107/18/1
f 104/17/1 109/18/1 103/19/1
f 104/17/1 107/20/1 109/18/1
f 86/17/1 92/18/1 90/19/1
f 86/17/1 88/20/1 92/18/1
f 94/17/1 106/18/1 93/19/1
f 94/17/1 103/20/1 106/18/1
f 106/15/1 110/4/1 105/1/1
f 106/15/1 111/16/1 110/4/1
f 103/15/1 111/4/1 106/1/1
f 103/15/1 109/16/1 111/4/1
f 102/22/1 108/16/1 101/15/1
f 102/22/1 112/21/1 108/16/1
f 98/17/1 104/18/1 97/19/1
f 98/17/1 101/20/1 104/18/1
f 85/22/1 89/16/1 87/15/1
f 85/22/1 95/21/1 89/16/1
f 110/12/4 113/11/4 114/10/4
f 110/12/4 111/9/4 113/11/4
f 111/12/4 115/11/4 113/10/4
f 111/12/4 109/9/4 115/11/4
f 107/12/4 116/11/4 117/10/4
f 107/12/4 108/9/4 116/11/4
f 109/12/4 117/11/4 115/10/4
f 109/12/4 107/9/4 117/11/4
f 108/12/4 118/11/4 116/10/4
f 108/12/4 112/9/4 118/11/4
f 113/7/4 119/9/4 120/12/4
f 113/7/4 115/8/4 119/9/4
f 117/7/4 121/9/4 122/12/4
f 117/7/4 116/8/4 121/9/4
f 114/7/4 120/9/4 123/12/4
f 114/7/4 113/8/4 120/9/4
f 115/7/4 122/9/4 119/12/4
f 115/7/4 117/8/4 122/9/4
f 116/7/4 124/9/4 121/12/4
f 116/7/4 118/8/4 124/9/4
f 121/8/4 125/13/4 126/9/4
f 121/8/4 124/23/4 125/13/4
f 119/8/4 127/13/4 128/9/4
f 119/8/4 122/23/4 127/13/4
f 122/8/4 126/13/4 127/9/4
f 122/8/4 121/23/4 126/13/4
f 120/8/4 128/13/4 129/9/4
f 120/8/4 119/23/4 128/13/4
f 123/8/4 129/13/4 130/9/4
f 123/8/4 120/23/4 129/13/4
f 128/7/1 131/2/1 129/8/1
f 128/7/1 132/3/1 131/2/1
f 127/7/1 132/2/1 128/8/1
f 127/7/1 133/3/1 132/2/1
f 126/7/1 133/2/1 127/8/1
f 126/7/1 134/3/1 133/2/1
f 125/7/1 134/2/1 126/8/1
f 125/7/1 135/3/1 134/2/1
f 129/7/1 136/2/1 130/8/1
f 129/7/1 131/3/1 136/2/1
f 131/3/1 137/4/1 136/2/1
f 131/3/1 138/1/1 137/4/1
f 132/3/1 138/4/1 131/2/1
f 132/3/1 139/1/1 138/4/1
f 134/2/1 140/6/1 133/5/1
f 134/2/1 141/4/1 140/6/1
f 133/2/1 139/6/1 132/5/1
f 133/2/1 140/4/1 139/6/1
f 135/2/1 141/6/1 134/5/1
f 135/2/1 142/4/1 141/6/1
f 139/2/1 143/6/1 138/5/1
f 139/2/1 144/4/1 143/6/1
f 138/2/1 145/6/1 137/5/1
f 138/2/1 143/4/1 145/6/1
f 140/2/1 144/6/1 139/5/1
f 140/2/1 146/4/1 144/6/1
f 141/2/1 146/6/1 140/5/1
f 141/2/1 147/4/1 146/6/1
f 142/2/1 147/6/1 141/5/1
f 142/2/1 148/4/1 147/6/1
f 147/2/1 149/6/1 146/5/1
f 147/2/1 150/4/1 149/6/1
f 146/3/1 151/4/1 144/2/1
f 146/3/1 149/1/1 151/4/1
f 144/3/1 152/4/1 143/2/1
f 144/3/1 151/1/1 152/4/1
f 143/3/1 153/4/1 145/2/1
f 143/3/1 152/1/1 153/4/1
f 148/3/1 150/4/1 147/2/1
f 148/3/1 154/1/1 150/4/1
f 154/3/1 155/4/1 150/2/1
f 154/3/1 156/1/1 155/4/1
f 150/3/1 157/4/1 149/2/1
f 150/3/1 155/1/1 157/4/1
f 149/3/1 158/4/1 151/2/1
f 149/3/1 157/1/1 158/4/1
f 151/3/1 159/4/1 152/2/1
f 151/3/1 158/1/1 159/4/1
f 152/4/1 160/3/1 153/2/1
f 152/4/1 159/1/1 160/3/1
f 161/8/1 32/3/1 162/2/1
f 161/8/1 30/7/1 32/3/1
f 163/8/1 162/3/1 164/2/1
f 163/8/1 161/7/1 162/3/1
f 165/8/1 164/3/1 166/2/1
f 165/8/1 163/7/1 164/3/1
f 167/8/1 166/3/1 168/2/1
f 167/8/1 165/7/1 166/3/1
f 169/19/1 170/4/1 171/16/1
f 169/19/1 172/6/1 170/4/1
f 173/4/2 174/3/2 175/2/2
f 173/4/2 176/1/2 174/3/2
f 177/4/2 176/3/2 173/2/2
f 177/4/2 178/1/2 176/3/2
f 178/4/2 179/3/2 176/2/2
f 178/4/2 180/1/2 179/3/2
f 181/4/4 182/3/4 183/2/4
f 181/4/4 184/1/4 182/3/4
f 185/6/1 186/2/1 187/4/1
f 185/6/1 188/5/1 186/2/1
f 189/23/1 188/2/1 185/5/1
f 189/23/1 190/8/1 188/2/1
f 191/6/1 192/2/1 193/4/1
f 191/6/1 194/5/1 192/2/1
f 195/5/1 196/8/1 197/2/1
f 195/5/1 198/23/1 196/8/1
f 194/5/1 199/8/1 192/2/1
f 194/5/1 200/23/1 199/8/1
f 201/2/1 197/1/1 202/4/1
f 201/2/1 195/3/1 197/1/1
f 190/23/1 203/2/1 188/5/1
f 190/23/1 204/8/1 203/2/1
f 203/5/1 194/4/1 191/6/1
f 203/5/1 205/2/1 194/4/1
f 188/5/1 191/4/1 186/6/1
f 188/5/1 203/2/1 191/4/1
f 206/23/1 207/2/1 205/5/1
f 206/23/1 208/8/1 207/2/1
f 204/23/1 205/2/1 203/5/1
f 204/23/1 206/8/1 205/2/1
f 186/5/1 193/4/1 209/6/1
f 186/5/1 191/2/1 193/4/1
f 209/5/1 201/4/1 210/6/1
f 209/5/1 193/2/1 201/4/1
f 205/5/1 200/8/1 194/2/1
f 205/5/1 207/23/1 200/8/1
f 210/2/1 202/1/1 211/4/1
f 210/2/1 201/3/1 202/1/1
f 212/2/1 211/1/1 213/4/1
f 212/2/1 210/3/1 211/1/1
f 193/6/1 195/2/1 201/4/1
f 193/6/1 192/5/1 195/2/1
f 214/6/1 210/2/1 212/4/1
f 214/6/1 209/5/1 210/2/1
f 187/6/1 209/2/1 214/4/1
f 187/6/1 186/5/1 209/2/1
f 192/5/1 198/8/1 195/2/1
f 192/5/1 199/23/1 198/8/1
f 215/5/4 216/8/4 217/2/4
f 215/5/4 218/23/4 216/8/4
f 219/8/4 161/12/4 163/9/4
f 219/8/4 220/7/4 161/12/4
f 221/13/4 29/11/4 30/14/4
f 221/13/4 41/9/4 29/11/4
f 222/13/4 163/11/4 165/14/4
f 222/13/4 219/9/4 163/11/4
f 223/8/4 165/12/4 167/9/4
f 223/8/4 222/7/4 165/12/4
f 220/8/4 30/12/4 161/9/4
f 220/8/4 221/7/4 30/12/4
f 41/8/4 25/12/4 29/9/4
f 41/8/4 224/7/4 25/12/4
f 225/8/4 226/12/4 224/9/4
f 225/8/4 227/7/4 226/12/4
f 228/8/2 229/12/2 230/9/2
f 228/8/2 231/7/2 229/12/2
f 232/8/2 233/12/2 234/9/2
f 232/8/2 235/7/2 233/12/2
f 236/8/2 237/12/2 238/9/2
f 236/8/2 239/7/2 237/12/2
f 240/16/1 241/6/1 242/4/1
f 240/16/1 243/19/1 241/6/1
f 242/16/1 244/6/1 245/4/1
f 242/16/1 241/19/1 244/6/1
f 245/16/1 246/6/1 247/4/1
f 245/16/1 244/19/1 246/6/1
f 247/16/1 248/6/1 249/4/1
f 247/16/1 246/19/1 248/6/1
f 249/16/1 250/6/1 251/4/1
f 249/16/1 248/19/1 250/6/1
f 251/16/1 170/6/1 172/4/1
f 251/16/1 250/19/1 170/6/1
f 252/17/1 242/18/1 253/19/1
f 252/17/1 240/20/1 242/18/1
f 253/17/1 245/18/1 254/19/1
f 253/17/1 242/20/1 245/18/1
f 254/17/1 247/18/1 255/19/1
f 254/17/1 245/20/1 247/18/1
f 256/15/1 257/4/1 258/1/1
f 256/15/1 259/16/1 257/4/1
f 255/15/1 249/4/1 260/1/1
f 255/15/1 247/16/1 249/4/1
f 260/15/1 251/4/1 261/1/1
f 260/15/1 249/16/1 251/4/1
f 262/17/1 263/18/1 264/19/1
f 262/17/1 261/20/1 263/18/1
f 265/17/1 261/18/1 262/19/1
f 265/17/1 260/20/1 261/18/1
f 266/17/1 260/18/1 265/19/1
f 266/17/1 255/20/1 260/18/1
f 267/17/1 255/18/1 266/19/1
f 267/17/1 254/20/1 255/18/1
f 268/17/1 254/18/1 267/19/1
f 268/17/1 253/20/1 254/18/1
f 269/17/1 253/18/1 268/19/1
f 269/17/1 252/20/1 253/18/1
f 270/17/1 271/18/1 272/19/1
f 270/17/1 273/20/1 271/18/1
f 272/17/1 274/18/1 275/19/1
f 272/17/1 271/20/1 274/18/1
f 275/17/1 259/18/1 256/19/1
f 275/17/1 274/20/1 259/18/1
f 258/15/1 276/4/1 277/1/1
f 258/15/1 257/16/1 276/4/1
f 250/15/1 278/4/1 170/1/1
f 250/15/1 277/16/1 278/4/1
f 277/17/1 279/18/1 278/19/1
f 277/17/1 276/20/1 279/18/1
f 280/4/1 281/3/1 282/1/1
f 280/4/1 283/2/1 281/3/1
f 248/15/1 277/4/1 250/1/1
f 248/15/1 258/16/1 277/4/1
f 244/15/1 256/4/1 246/1/1
f 244/15/1 275/16/1 256/4/1
f 246/17/1 258/18/1 248/19/1
f 246/17/1 256/20/1 258/18/1
f 243/17/1 272/18/1 241/19/1
f 243/17/1 270/20/1 272/18/1
f 241/17/1 275/18/1 244/19/1
f 241/17/1 272/20/1 275/18/1
f 261/15/1 172/4/1 263/1/1
f 261/15/1 251/16/1 172/4/1
f 284/7/4 130/9/4 285/12/4
f 284/7/4 123/8/4 130/9/4
f 286/7/4 285/9/4 287/12/4
f 286/7/4 284/8/4 285/9/4
f 288/7/4 287/9/4 289/12/4
f 288/7/4 286/8/4 287/9/4
f 290/7/4 289/9/4 291/12/4
f 290/7/4 288/8/4 289/9/4
f 292/7/4 291/9/4 293/12/4
f 292/7/4 290/8/4 291/9/4
f 294/7/4 293/9/4 295/12/4
f 294/7/4 292/8/4 293/9/4
f 296/7/4 292/9/4 294/12/4
f 296/7/4 297/8/4 292/9/4
f 297/7/4 290/9/4 292/12/4
f 297/7/4 298/8/4 290/9/4
f 298/7/4 288/9/4 290/12/4
f 298/7/4 299/8/4 288/9/4
f 299/7/4 286/9/4 288/12/4
f 299/7/4 300/8/4 286/9/4
f 300/7/4 284/9/4 286/12/4
f 300/7/4 301/8/4 284/9/4
f 301/7/4 123/9/4 284/12/4
f 301/7/4 114/8/4 123/9/4
f 302/9/4 114/14/4 301/11/4
f 302/9/4 110/13/4 114/14/4
f 303/9/4 301/14/4 300/11/4
f 303/9/4 302/13/4 301/14/4
f 304/9/4 300/14/4 299/11/4
f 304/9/4 303/13/4 300/14/4
f 305/9/4 299/14/4 298/11/4
f 305/9/4 304/13/4 299/14/4
f 306/9/4 298/14/4 297/11/4
f 306/9/4 305/13/4 298/14/4
f 307/9/4 297/14/4 296/11/4
f 307/9/4 306/13/4 297/14/4
f 308/5/1 130/8/1 136/2/1
f 308/5/1 285/23/1 130/8/1
f 309/5/1 285/8/1 308/2/1
f 309/5/1 287/23/1 285/8/1
f 310/5/1 287/8/1 309/2/1
f 310/5/1 289/23/1 287/8/1
f 311/5/1 289/8/1 310/2/1
f 311/5/1 291/23/1 289/8/1
f 312/5/1 291/8/1 311/2/1
f 312/5/1 293/23/1 291/8/1
f 313/5/1 293/8/1 312/2/1
f 313/5/1 295/23/1 293/8/1
f 314/4/1 153/3/1 160/1/1
f 314/4/1 315/2/1 153/3/1
f 316/4/1 317/3/1 315/1/1
f 316/4/1 318/2/1 317/3/1
f 319/4/1 320/3/1 321/1/1
f 319/4/1 322/2/1 320/3/1
f 322/4/1 310/3/1 320/1/1
f 322/4/1 311/2/1 310/3/1
f 323/4/1 311/3/1 322/1/1
f 323/4/1 312/2/1 311/3/1
f 324/4/1 312/3/1 323/1/1
f 324/4/1 313/2/1 312/3/1
f 280/4/1 323/3/1 283/1/1
f 280/4/1 324/2/1 323/3/1
f 283/4/1 322/3/1 319/1/1
f 283/4/1 323/2/1 322/3/1
f 281/4/1 319/3/1 325/1/1
f 281/4/1 283/2/1 319/3/1
f 325/4/1 321/3/1 326/1/1
f 325/4/1 319/2/1 321/3/1
f 327/4/1 326/3/1 328/1/1
f 327/4/1 325/2/1 326/3/1
f 328/4/1 316/3/1 329/1/1
f 328/4/1 326/2/1 316/3/1
f 329/4/1 315/3/1 314/1/1
f 329/4/1 316/2/1 315/3/1
f 330/4/1 325/3/1 327/1/1
f 330/4/1 281/2/1 325/3/1
f 331/4/1 281/3/1 330/1/1
f 331/4/1 282/2/1 281/3/1
f 326/4/1 318/3/1 316/1/1
f 326/4/1 321/2/1 318/3/1
f 318/4/1 332/3/1 317/1/1
f 318/4/1 333/2/1 332/3/1
f 315/4/1 145/3/1 153/1/1
f 315/4/1 317/2/1 145/3/1
f 317/4/1 137/3/1 145/1/1
f 317/4/1 332/2/1 137/3/1
f 332/4/1 136/3/1 137/1/1
f 332/4/1 308/2/1 136/3/1
f 333/4/1 308/3/1 332/1/1
f 333/4/1 309/2/1 308/3/1
f 321/4/1 333/3/1 318/1/1
f 321/4/1 320/2/1 333/3/1
f 320/4/1 309/3/1 333/1/1
f 320/4/1 310/2/1 309/3/1
f 278/17/1 334/18/1 335/19/1
f 278/17/1 279/20/1 334/18/1
f 171/16/1 278/1/1 335/15/1
f 171/16/1 170/4/1 278/1/1
f 336/16/1 172/1/1 169/15/1
f 336/16/1 263/4/1 172/1/1
f 337/16/1 263/1/1 336/15/1
f 337/16/1 264/4/1 263/1/1
f 39/7/1 2/2/1 28/8/1
f 39/7/1 3/3/1 2/2/1
f 338/8/1 168/3/1 339/2/1
f 338/8/1 167/7/1 168/3/1
f 340/9/4 167/7/4 338/8/4
f 340/9/4 223/12/4 167/7/4
f 341/5/1 196/4/1 342/6/1
f 341/5/1 197/2/1 196/4/1
f 343/5/1 197/4/1 341/6/1
f 343/5/1 202/2/1 197/4/1
f 344/5/1 202/4/1 343/6/1
f 344/5/1 211/2/1 202/4/1
f 345/5/1 211/4/1 344/6/1
f 345/5/1 213/2/1 211/4/1
